<svg width="208" height="48" fill="none" xmlns="http://www.w3.org/2000/svg"><mask id="a" style="mask-type:alpha" maskUnits="userSpaceOnUse" x="0" y="0" width="208" height="48"><rect width="208" height="48" rx="9" fill="#D9D9D9"/></mask><g mask="url(#a)"><ellipse cx="30.5" cy="61" rx="43.5" ry="42" fill="#D3C756"/><ellipse cx="127" cy="-4.5" rx="38" ry="31.5" fill="#D3C756"/><ellipse cx="167" cy="56.5" rx="32" ry="27.5" fill="#D3C756"/><ellipse cx="211" cy="1.5" rx="32" ry="27.5" fill="#D3C756"/><path d="M65.453 31H61.87c-.052 0-.078-.033-.078-.098l.04-13.74c0-.052.025-.078.077-.078h3.848c.749 0 1.429.182 2.04.547.6.364 1.072.85 1.417 1.455.345.599.518 1.25.518 1.953 0 .573-.13 1.107-.391 1.602-.26.494-.57.895-.928 1.2a4.171 4.171 0 011.22 2.94c0 .775-.185 1.481-.556 2.12a4.377 4.377 0 01-1.513 1.533 4.032 4.032 0 01-2.11.566zm.303-11.543h-1.524v3.145h1.524c.462 0 .836-.163 1.123-.489.286-.332.43-.69.43-1.074 0-.423-.153-.791-.46-1.104a1.464 1.464 0 00-1.093-.478zm-.303 5.566h-1.22l-.02 3.536h1.24c.482 0 .895-.176 1.24-.528.345-.351.518-.768.518-1.25s-.173-.895-.518-1.24a1.692 1.692 0 00-1.24-.518zM73.432 31h-2.266c-.065 0-.098-.033-.098-.098l.02-13.74c0-.052.026-.078.078-.078h2.246c.052 0 .078.026.078.078l.02 13.74c0 .065-.026.098-.078.098zm8.379 0h-6.465c-.052 0-.078-.033-.078-.098l.02-13.72c0-.066.032-.098.097-.098h2.226c.065 0 .098.032.098.098l-.02 11.357h4.122c.065 0 .097.033.097.098v2.265c0 .065-.032.098-.097.098zm7.949 0h-6.465c-.052 0-.078-.033-.078-.098l.02-13.72c0-.066.032-.098.097-.098h2.227c.065 0 .097.032.097.098l-.02 11.357h4.122c.065 0 .097.033.097.098v2.265c0 .065-.032.098-.097.098zm7.949 0h-6.465c-.052 0-.078-.033-.078-.098l.02-13.74c0-.052.026-.078.078-.078h6.425c.053 0 .079.032.079.098v2.236c0 .052-.026.078-.079.078h-4.101v3.125h4.102c.052 0 .078.026.078.078l.02 2.266c0 .052-.027.078-.079.078h-4.121v3.496h4.121c.052 0 .078.033.078.098v2.285c0 .052-.026.078-.078.078zm6.123 0h-2.256c-.058 0-.088-.033-.088-.098V19.496h-2.597c-.066 0-.098-.032-.098-.098l.02-2.236c0-.052.025-.078.078-.078h7.597c.072 0 .108.026.108.078v2.236c0 .066-.026.098-.078.098h-2.627l.019 11.406c0 .065-.026.098-.078.098zm8.008 0h-2.256c-.059 0-.088-.033-.088-.098V19.496h-2.598c-.065 0-.097-.032-.097-.098l.019-2.236c0-.052.026-.078.078-.078h7.598c.072 0 .108.026.108.078v2.236c0 .066-.027.098-.079.098h-2.627l.02 11.406c0 .065-.026.098-.078.098zm10.283 0h-6.465c-.052 0-.078-.033-.078-.098l.02-13.74c0-.052.026-.078.078-.078h6.426c.052 0 .078.032.078.098v2.236c0 .052-.026.078-.078.078h-4.102v3.125h4.102c.052 0 .078.026.078.078l.019 2.266c0 .052-.026.078-.078.078h-4.121v3.496h4.121c.052 0 .078.033.078.098v2.285c0 .052-.026.078-.078.078zm4.199 0h-2.265c-.052 0-.078-.033-.078-.098l.039-13.74c0-.052.026-.078.078-.078h4.043a3.9 3.9 0 011.992.527 4.02 4.02 0 011.445 1.416c.365.593.547 1.263.547 2.012 0 .488-.075.931-.225 1.328a4.125 4.125 0 01-.527 1.006 3.04 3.04 0 01-.537.605 4.075 4.075 0 011.084 2.823l.02 4.101c0 .065-.033.098-.098.098h-2.266c-.052 0-.078-.02-.078-.059v-4.14a1.74 1.74 0 00-.508-1.25 1.666 1.666 0 00-1.25-.528h-1.318l-.02 5.88c0 .064-.026.097-.078.097zm1.817-11.523h-1.719v3.144h1.719c.41 0 .774-.153 1.093-.459.326-.306.489-.68.489-1.123a1.48 1.48 0 00-.469-1.094 1.522 1.522 0 00-1.113-.468zM135.99 31h-2.265c-.065 0-.098-.033-.098-.098l.019-13.74c0-.052.027-.078.079-.078h2.246c.052 0 .078.026.078.078l.019 13.74c0 .065-.026.098-.078.098zm8.379 0h-6.465c-.052 0-.078-.033-.078-.098l.02-13.74c0-.052.026-.078.078-.078h6.426c.052 0 .078.032.078.098v2.236c0 .052-.026.078-.078.078h-4.102v3.125h4.102c.052 0 .078.026.078.078l.019 2.266c0 .052-.026.078-.078.078h-4.121v3.496h4.121c.052 0 .078.033.078.098v2.285c0 .052-.026.078-.078.078z" fill="#000"/></g><path d="M189 24l-10-5.773v11.546L189 24zm-33 0v1h24v-2h-24v1z" fill="#000"/></svg>