<svg width="249" height="51" fill="none" xmlns="http://www.w3.org/2000/svg"><rect y="19" width="249" height="32" rx="5" fill="#D9D9D9"/><path d="M1.41 15V3.364h7.022v1.25H2.818v3.931h5.25v1.25h-5.25v3.955h5.705V15H1.409zm9.38 0V6.273h1.295v1.363h.114c.182-.466.475-.827.88-1.085.406-.261.893-.392 1.46-.392.577 0 1.056.13 1.438.392.387.258.688.62.904 1.085h.09c.224-.45.56-.808 1.006-1.074.447-.268.983-.403 1.608-.403.78 0 1.419.244 1.915.733.496.485.744 1.24.744 2.267V15h-1.34V9.16c0-.645-.177-1.105-.529-1.382a1.956 1.956 0 00-1.244-.414c-.614 0-1.09.185-1.427.556-.337.368-.505.834-.505 1.398V15h-1.364V9.023c0-.496-.16-.896-.483-1.2-.322-.306-.736-.46-1.244-.46-.349 0-.674.093-.977.279-.3.186-.542.443-.728.773a2.281 2.281 0 00-.272 1.13V15H10.79zm16.474.204a3.546 3.546 0 01-1.505-.312 2.584 2.584 0 01-1.074-.915c-.265-.401-.398-.886-.398-1.454 0-.5.098-.906.295-1.216.197-.315.46-.56.79-.739a4.15 4.15 0 011.091-.397c.402-.091.805-.163 1.21-.216.53-.069.96-.12 1.29-.154.333-.038.576-.1.727-.187.156-.087.233-.239.233-.455v-.045c0-.561-.153-.997-.46-1.307-.303-.31-.763-.466-1.38-.466-.64 0-1.143.14-1.506.42-.364.28-.62.58-.767.898l-1.273-.454c.227-.53.53-.944.909-1.24.383-.298.8-.507 1.25-.624a5.19 5.19 0 011.34-.182c.281 0 .603.034.967.102a3.09 3.09 0 011.062.404c.345.204.631.513.858.926.228.413.341.966.341 1.659V15h-1.34v-1.182h-.069a2.36 2.36 0 01-.454.608c-.213.216-.495.4-.847.551-.352.152-.782.227-1.29.227zM27.47 14c.53 0 .977-.104 1.34-.313a2.127 2.127 0 001.114-1.846v-1.227c-.056.068-.181.13-.375.187-.19.053-.409.1-.659.142a29.81 29.81 0 01-1.284.17c-.348.046-.674.12-.977.222-.3.099-.542.248-.727.45-.182.196-.273.465-.273.806 0 .466.172.818.517 1.057.348.235.79.352 1.324.352zm6.243 1V6.273h1.34V15h-1.34zm.681-10.182a.953.953 0 01-.676-.267.858.858 0 01-.278-.642c0-.25.093-.464.278-.642A.953.953 0 0134.394 3c.26 0 .484.089.67.267a.85.85 0 01.284.642.85.85 0 01-.284.642.934.934 0 01-.67.267zm4.456-1.454V15h-1.34V3.364h1.34z" fill="#000"/></svg>