<svg width="360" height="59" fill="none" xmlns="http://www.w3.org/2000/svg"><rect width="360" height="59" rx="13" fill="#D3C756"/><path d="M25.773 24.614v-1.25H34.5v1.25h-3.66V35h-1.408V24.614h-3.66zm13.113 10.568c-.84 0-1.566-.186-2.176-.557a3.738 3.738 0 01-1.403-1.568c-.326-.674-.489-1.459-.489-2.353 0-.893.163-1.681.489-2.363.33-.686.788-1.22 1.375-1.602.59-.387 1.28-.58 2.068-.58.455 0 .903.076 1.347.227.443.152.846.398 1.21.739.363.337.653.784.87 1.34.215.558.323 1.243.323 2.058v.568h-6.727v-1.16h5.363c0-.492-.098-.931-.295-1.317a2.226 2.226 0 00-.83-.915c-.356-.224-.776-.335-1.261-.335-.534 0-.996.132-1.386.397a2.615 2.615 0 00-.892 1.023c-.209.42-.313.871-.313 1.352v.773c0 .66.114 1.218.341 1.676.231.455.551.801.96 1.04.41.235.885.352 1.426.352.353 0 .67-.049.955-.147.288-.103.536-.254.744-.455.209-.205.37-.458.483-.761l1.296.363c-.137.44-.366.826-.688 1.16-.322.329-.72.587-1.193.772a4.426 4.426 0 01-1.597.273zm6.42-8.91l2.09 3.569 2.091-3.568h1.546l-2.819 4.363L51.034 35h-1.546l-2.09-3.386L45.304 35H43.76l2.773-4.364-2.773-4.363h1.545zm11.436 0v1.137h-4.523v-1.136h4.523zm-3.205-2.09h1.34V32.5c0 .379.056.663.166.852.113.186.257.31.431.375.179.06.366.091.563.091.148 0 .269-.007.364-.023l.227-.045.273 1.205c-.091.034-.218.068-.381.102-.163.038-.37.057-.62.057a2.7 2.7 0 01-1.113-.245 2.213 2.213 0 01-.898-.744c-.235-.333-.352-.754-.352-1.261v-8.682zm8.787 11c-.841 0-1.566-.186-2.176-.557a3.738 3.738 0 01-1.404-1.568c-.325-.674-.488-1.459-.488-2.353 0-.893.163-1.681.488-2.363.33-.686.788-1.22 1.375-1.602.591-.387 1.28-.58 2.069-.58.454 0 .903.076 1.346.227.443.152.847.398 1.21.739.364.337.654.784.87 1.34.215.558.323 1.243.323 2.058v.568H59.21v-1.16h5.364c0-.492-.099-.931-.296-1.317a2.226 2.226 0 00-.83-.915c-.355-.224-.776-.335-1.26-.335-.535 0-.997.132-1.387.397a2.615 2.615 0 00-.892 1.023c-.208.42-.312.871-.312 1.352v.773c0 .66.113 1.218.34 1.676.232.455.552.801.96 1.04.41.235.885.352 1.427.352.352 0 .67-.049.954-.147.288-.103.536-.254.745-.455.208-.205.369-.458.483-.761l1.295.363c-.136.44-.365.826-.687 1.16-.322.329-.72.587-1.194.772a4.426 4.426 0 01-1.596.273z" fill="#000"/></svg>