<svg width="360" height="59" fill="none" xmlns="http://www.w3.org/2000/svg"><rect width="360" height="59" rx="13" fill="#D3C756"/><path d="M26.41 35V23.364h7.022v1.25h-5.614v3.931h5.25v1.25h-5.25v3.955h5.705V35h-7.114zm15.562-6.773l-1.205.341a2.234 2.234 0 00-.335-.585 1.626 1.626 0 00-.591-.477c-.25-.125-.57-.188-.96-.188-.534 0-.98.123-1.336.37-.352.242-.528.55-.528.926 0 .333.121.596.364.79.242.193.62.354 1.136.482l1.295.319c.78.189 1.362.479 1.745.869.382.386.574.884.574 1.494 0 .5-.144.947-.432 1.341-.284.394-.682.705-1.193.932-.512.227-1.106.34-1.784.34-.89 0-1.627-.192-2.21-.579-.584-.386-.953-.95-1.109-1.693l1.273-.318c.121.47.35.822.688 1.057.34.235.786.352 1.335.352.625 0 1.121-.133 1.489-.398.37-.269.556-.59.556-.966 0-.303-.106-.556-.318-.761-.212-.208-.538-.364-.977-.466l-1.455-.34c-.799-.19-1.386-.484-1.761-.881-.371-.402-.557-.904-.557-1.506 0-.493.138-.928.415-1.307.28-.379.66-.676 1.142-.892.485-.216 1.034-.324 1.648-.324.863 0 1.541.19 2.034.568.496.38.848.88 1.057 1.5zm5.973-1.954v1.136h-4.523v-1.136h4.523zm-3.205-2.091h1.341V32.5c0 .379.055.663.165.852.113.186.257.31.432.375.178.06.365.091.562.091.148 0 .269-.007.364-.023l.227-.045.273 1.205c-.091.034-.218.068-.381.102-.163.038-.37.057-.62.057-.378 0-.75-.082-1.113-.245a2.213 2.213 0 01-.898-.744c-.234-.333-.352-.754-.352-1.261v-8.682zm9.91 5.204v1.25h-5.092v-1.25h5.091zm5.904 5.796c-.818 0-1.523-.193-2.114-.58a3.777 3.777 0 01-1.363-1.596c-.319-.678-.478-1.453-.478-2.324 0-.886.163-1.669.49-2.347.329-.682.787-1.214 1.374-1.596.591-.387 1.28-.58 2.068-.58.614 0 1.167.114 1.66.341.492.227.895.546 1.21.954.314.41.509.887.585 1.432h-1.341c-.102-.397-.33-.75-.682-1.056-.348-.311-.818-.466-1.409-.466-.523 0-.981.136-1.375.409-.39.269-.695.65-.915 1.142-.216.488-.324 1.062-.324 1.721 0 .675.106 1.262.319 1.762.215.5.519.888.909 1.164.394.277.856.415 1.386.415.349 0 .665-.06.949-.181.284-.122.525-.296.721-.523.197-.228.338-.5.42-.819h1.342c-.076.516-.264.98-.563 1.393-.295.409-.687.734-1.176.977-.485.239-1.05.358-1.693.358zm9.051 0c-.84 0-1.566-.186-2.176-.557a3.737 3.737 0 01-1.403-1.568c-.326-.674-.49-1.459-.49-2.353 0-.893.164-1.681.49-2.363.33-.686.787-1.22 1.375-1.602.59-.387 1.28-.58 2.068-.58.454 0 .903.076 1.346.227.444.152.847.398 1.21.739.364.337.654.784.87 1.34.216.558.324 1.243.324 2.058v.568h-6.727v-1.16h5.363c0-.492-.098-.931-.295-1.317a2.226 2.226 0 00-.83-.915c-.356-.224-.776-.335-1.261-.335-.534 0-.996.132-1.387.397a2.616 2.616 0 00-.892 1.023c-.208.42-.312.871-.312 1.352v.773c0 .66.114 1.218.34 1.676.232.455.552.801.961 1.04.41.235.884.352 1.426.352.352 0 .67-.049.955-.147.287-.103.536-.254.744-.455.208-.205.37-.458.483-.761l1.295.363c-.136.44-.365.826-.687 1.16-.322.329-.72.587-1.193.772a4.426 4.426 0 01-1.597.273zm16.108 3.09V33.66H85.6c-.098.16-.238.36-.42.602-.182.239-.441.453-.778.642-.338.186-.786.279-1.347.279-.727 0-1.37-.184-1.926-.551-.557-.371-.993-.894-1.307-1.569-.314-.677-.472-1.479-.472-2.403 0-.917.158-1.712.472-2.386.314-.674.752-1.195 1.313-1.563.56-.367 1.208-.55 1.943-.55.568 0 1.017.094 1.346.283.334.186.587.398.762.636.178.235.316.429.414.58h.16v-1.386h1.295v12h-1.34zm-2.477-4.295c.538 0 .992-.14 1.363-.42.372-.284.654-.676.847-1.176.193-.504.29-1.085.29-1.745 0-.651-.095-1.221-.284-1.71-.19-.492-.47-.875-.841-1.148-.371-.276-.83-.414-1.375-.414-.568 0-1.042.145-1.42.437-.376.288-.658.68-.847 1.176a4.673 4.673 0 00-.279 1.66c0 .62.095 1.185.284 1.693.194.503.478.905.853 1.204.379.296.848.443 1.409.443zm11.772-2.545v-5.16h1.341V35h-1.34v-1.477h-.091c-.205.443-.523.82-.955 1.13-.432.307-.977.46-1.636.46-.546 0-1.03-.119-1.455-.357-.424-.243-.757-.606-1-1.091-.242-.489-.364-1.104-.364-1.847v-5.545h1.341v5.454c0 .637.178 1.144.534 1.523.36.379.819.568 1.376.568.333 0 .672-.085 1.017-.255.348-.171.64-.432.875-.785.238-.352.358-.8.358-1.346zm7.456 3.75c-.84 0-1.566-.186-2.176-.557a3.74 3.74 0 01-1.403-1.568c-.326-.674-.489-1.459-.489-2.353 0-.893.163-1.681.489-2.363.33-.686.788-1.22 1.375-1.602.591-.387 1.28-.58 2.068-.58.455 0 .904.076 1.347.227a3.34 3.34 0 011.21.739c.364.337.653.784.869 1.34.216.558.324 1.243.324 2.058v.568h-6.727v-1.16h5.363c0-.492-.098-.931-.295-1.317a2.225 2.225 0 00-.83-.915c-.356-.224-.776-.335-1.261-.335-.534 0-.996.132-1.386.397a2.608 2.608 0 00-.892 1.023c-.209.42-.313.871-.313 1.352v.773c0 .66.114 1.218.341 1.676.231.455.551.801.96 1.04.409.235.885.352 1.426.352a2.9 2.9 0 00.955-.147c.288-.103.536-.254.744-.455.209-.205.37-.458.483-.761l1.296.363a2.88 2.88 0 01-.688 1.16c-.322.329-.719.587-1.193.772a4.426 4.426 0 01-1.597.273zm11.495-11.818V35h-1.341V23.364h1.341zm6.115 11.818c-.841 0-1.566-.186-2.176-.557a3.742 3.742 0 01-1.404-1.568c-.325-.674-.488-1.459-.488-2.353 0-.893.163-1.681.488-2.363.33-.686.788-1.22 1.375-1.602.591-.387 1.281-.58 2.069-.58.454 0 .903.076 1.346.227.443.152.847.398 1.21.739.364.337.654.784.87 1.34.216.558.324 1.243.324 2.058v.568h-6.728v-1.16h5.364c0-.492-.099-.931-.296-1.317a2.223 2.223 0 00-.829-.915c-.356-.224-.777-.335-1.261-.335-.535 0-.997.132-1.387.397a2.615 2.615 0 00-.892 1.023c-.208.42-.312.871-.312 1.352v.773c0 .66.113 1.218.341 1.676.231.455.551.801.96 1.04.409.235.884.352 1.426.352.352 0 .67-.049.954-.147.288-.103.536-.254.745-.455.208-.205.369-.458.483-.761l1.295.363c-.136.44-.365.826-.687 1.16a3.35 3.35 0 01-1.194.772 4.42 4.42 0 01-1.596.273zm11.835-6.955l-1.204.341a2.238 2.238 0 00-.336-.585 1.628 1.628 0 00-.591-.477c-.25-.125-.57-.188-.96-.188-.534 0-.979.123-1.335.37-.352.242-.528.55-.528.926 0 .333.121.596.363.79.243.193.621.354 1.137.482l1.295.319c.78.189 1.362.479 1.744.869.383.386.574.884.574 1.494 0 .5-.144.947-.432 1.341-.284.394-.681.705-1.193.932-.511.227-1.106.34-1.784.34-.89 0-1.627-.192-2.21-.579-.583-.386-.953-.95-1.108-1.693l1.273-.318c.121.47.35.822.687 1.057.341.235.786.352 1.335.352.625 0 1.122-.133 1.489-.398.371-.269.557-.59.557-.966 0-.303-.106-.556-.318-.761-.212-.208-.538-.364-.978-.466l-1.454-.34c-.799-.19-1.387-.484-1.762-.881-.371-.402-.556-.904-.556-1.506 0-.493.138-.928.414-1.307a2.828 2.828 0 011.142-.892c.485-.216 1.035-.324 1.648-.324.864 0 1.542.19 2.034.568.496.38.849.88 1.057 1.5zm10.337 6.955c-.841 0-1.567-.186-2.176-.557a3.742 3.742 0 01-1.404-1.568c-.326-.674-.488-1.459-.488-2.353 0-.893.162-1.681.488-2.363.33-.686.788-1.22 1.375-1.602.591-.387 1.28-.58 2.068-.58.455 0 .904.076 1.347.227.443.152.847.398 1.21.739.364.337.654.784.87 1.34.215.558.323 1.243.323 2.058v.568h-6.727v-1.16h5.364c0-.492-.099-.931-.296-1.317a2.223 2.223 0 00-.829-.915c-.356-.224-.777-.335-1.262-.335-.534 0-.996.132-1.386.397a2.615 2.615 0 00-.892 1.023 3.01 3.01 0 00-.313 1.352v.773c0 .66.114 1.218.341 1.676.231.455.552.801.961 1.04.409.235.884.352 1.426.352.352 0 .67-.049.954-.147.288-.103.536-.254.745-.455.208-.205.369-.458.483-.761l1.295.363c-.136.44-.366.826-.687 1.16a3.35 3.35 0 01-1.194.772 4.42 4.42 0 01-1.596.273zm6.994-5.432V35h-1.341v-8.727h1.296v1.363h.113c.205-.443.515-.799.932-1.068.417-.273.955-.409 1.614-.409.591 0 1.108.121 1.551.364a2.45 2.45 0 011.034 1.09c.246.486.369 1.1.369 1.841V35h-1.341v-5.454c0-.686-.178-1.22-.534-1.603-.356-.386-.844-.58-1.466-.58-.428 0-.81.093-1.147.279a1.988 1.988 0 00-.79.813c-.193.356-.29.787-.29 1.295zm11.905-3.477v1.136h-4.705v-1.136h4.705zM157.849 35v-9.932c0-.5.118-.917.353-1.25a2.18 2.18 0 01.914-.75c.375-.167.771-.25 1.188-.25.33 0 .598.027.807.08.208.053.363.102.466.148l-.387 1.159a6.673 6.673 0 00-.284-.086 1.717 1.717 0 00-.466-.05c-.443 0-.763.11-.96.334-.193.224-.29.552-.29.983V35h-1.341zm7.493.205a3.54 3.54 0 01-1.505-.313 2.582 2.582 0 01-1.074-.915c-.265-.401-.398-.886-.398-1.454 0-.5.099-.906.296-1.216.196-.315.46-.56.789-.739.33-.178.693-.31 1.091-.398.402-.09.805-.162 1.21-.216.531-.068.961-.119 1.29-.153.334-.038.576-.1.727-.187.156-.088.233-.239.233-.455v-.045c0-.561-.153-.997-.46-1.307-.303-.31-.763-.466-1.38-.466-.641 0-1.143.14-1.506.42-.364.28-.619.58-.767.898l-1.273-.454c.227-.53.53-.944.909-1.24.383-.298.799-.507 1.25-.624a5.196 5.196 0 011.341-.182c.28 0 .602.034.966.102.367.065.722.2 1.062.404.345.204.631.513.858.926.228.413.341.966.341 1.659V35h-1.341v-1.182h-.068c-.091.19-.242.392-.454.608-.212.216-.495.4-.847.551-.352.152-.782.228-1.29.228zm.205-1.205c.53 0 .977-.104 1.341-.313.367-.208.644-.477.829-.806.19-.33.284-.676.284-1.04v-1.227c-.056.068-.181.13-.375.187a6.29 6.29 0 01-.659.142 29.56 29.56 0 01-1.284.17c-.348.046-.674.12-.977.222a1.681 1.681 0 00-.727.45c-.182.196-.273.465-.273.806 0 .466.172.818.517 1.057.348.235.79.352 1.324.352zm7.584-4.25V35h-1.341v-8.727h1.295v1.363h.114c.204-.443.515-.799.932-1.068.416-.273.954-.409 1.613-.409.591 0 1.108.121 1.551.364.444.238.788.602 1.035 1.09.246.486.369 1.1.369 1.841V35h-1.341v-5.454c0-.686-.178-1.22-.534-1.603-.356-.386-.845-.58-1.466-.58a2.34 2.34 0 00-1.148.279 2 2 0 00-.79.813c-.193.356-.289.787-.289 1.295zm11.814-3.477v1.136h-4.523v-1.136h4.523zm-3.205-2.091h1.341V32.5c0 .379.055.663.165.852.113.186.257.31.432.375.178.06.365.091.562.091.148 0 .269-.007.364-.023l.227-.045.273 1.205a2.733 2.733 0 01-.381.102 2.8 2.8 0 01-.619.057 2.7 2.7 0 01-1.114-.245 2.215 2.215 0 01-.898-.744c-.235-.333-.352-.754-.352-1.261v-8.682zm11.247 4.045l-1.204.341a2.238 2.238 0 00-.336-.585 1.616 1.616 0 00-.59-.477c-.25-.125-.571-.188-.961-.188-.534 0-.979.123-1.335.37-.352.242-.528.55-.528.926 0 .333.121.596.363.79.243.193.622.354 1.137.482l1.295.319c.78.189 1.362.479 1.744.869.383.386.574.884.574 1.494 0 .5-.144.947-.432 1.341-.284.394-.681.705-1.193.932-.511.227-1.106.34-1.784.34-.89 0-1.627-.192-2.21-.579-.583-.386-.953-.95-1.108-1.693l1.273-.318c.121.47.35.822.687 1.057.341.235.786.352 1.335.352.625 0 1.122-.133 1.489-.398.371-.269.557-.59.557-.966 0-.303-.106-.556-.318-.761-.212-.208-.538-.364-.978-.466l-1.454-.34c-.799-.19-1.386-.484-1.761-.881-.372-.402-.557-.904-.557-1.506 0-.493.138-.928.415-1.307.28-.379.661-.676 1.142-.892.484-.216 1.034-.324 1.647-.324.864 0 1.542.19 2.034.568.497.38.849.88 1.057 1.5zm12.86 0l-1.205.341a2.233 2.233 0 00-.335-.585 1.628 1.628 0 00-.591-.477c-.25-.125-.57-.188-.96-.188-.534 0-.979.123-1.336.37-.352.242-.528.55-.528.926 0 .333.121.596.364.79.242.193.621.354 1.136.482l1.296.319c.78.189 1.361.479 1.744.869.382.386.574.884.574 1.494 0 .5-.144.947-.432 1.341-.284.394-.682.705-1.193.932-.512.227-1.106.34-1.784.34-.891 0-1.627-.192-2.211-.579-.583-.386-.952-.95-1.108-1.693l1.273-.318c.121.47.351.822.688 1.057.341.235.786.352 1.335.352.625 0 1.121-.133 1.488-.398.372-.269.557-.59.557-.966 0-.303-.106-.556-.318-.761-.212-.208-.538-.364-.977-.466l-1.455-.34c-.799-.19-1.386-.484-1.761-.881-.371-.402-.557-.904-.557-1.506 0-.493.138-.928.415-1.307.28-.379.661-.676 1.142-.892.485-.216 1.034-.324 1.648-.324.863 0 1.541.19 2.034.568.496.38.848.88 1.057 1.5zm5.723 6.955c-.788 0-1.48-.188-2.074-.563-.591-.375-1.053-.9-1.387-1.574-.329-.674-.494-1.462-.494-2.363 0-.91.165-1.703.494-2.38.334-.679.796-1.205 1.387-1.58.594-.375 1.286-.563 2.074-.563.787 0 1.477.188 2.068.563.594.375 1.057.901 1.386 1.58.333.677.5 1.47.5 2.38 0 .901-.167 1.69-.5 2.363a3.77 3.77 0 01-1.386 1.574c-.591.375-1.281.563-2.068.563zm0-1.205c.598 0 1.091-.153 1.477-.46.386-.307.672-.71.858-1.21.185-.5.278-1.042.278-1.625s-.093-1.127-.278-1.63a2.755 2.755 0 00-.858-1.223c-.386-.31-.879-.465-1.477-.465-.599 0-1.091.155-1.478.465-.386.311-.672.718-.858 1.222a4.695 4.695 0 00-.278 1.63c0 .584.093 1.126.278 1.626.186.5.472.903.858 1.21.387.307.879.46 1.478.46zm7.342-4.227V35h-1.341v-8.727h1.295v1.363h.114c.205-.443.515-.799.932-1.068.417-.273.954-.409 1.614-.409.59 0 1.108.121 1.551.364a2.45 2.45 0 011.034 1.09c.246.486.369 1.1.369 1.841V35h-1.341v-5.454c0-.686-.178-1.22-.534-1.603-.356-.386-.845-.58-1.466-.58-.428 0-.81.093-1.148.279a1.992 1.992 0 00-.789.813c-.193.356-.29.787-.29 1.295zm11.814-3.477v1.136h-4.523v-1.136h4.523zm-3.205-2.091h1.341V32.5c0 .379.055.663.165.852.114.186.258.31.432.375.178.06.365.091.562.091.148 0 .269-.007.364-.023l.227-.045.273 1.205a2.733 2.733 0 01-.381.102 2.8 2.8 0 01-.619.057 2.7 2.7 0 01-1.114-.245 2.205 2.205 0 01-.897-.744c-.235-.333-.353-.754-.353-1.261v-8.682zm12.29 11.023a3.548 3.548 0 01-1.506-.313 2.585 2.585 0 01-1.073-.915c-.266-.401-.398-.886-.398-1.454 0-.5.098-.906.295-1.216.197-.315.46-.56.79-.739.33-.178.693-.31 1.091-.398.401-.09.805-.162 1.21-.216.53-.068.96-.119 1.29-.153.333-.038.576-.1.727-.187.156-.088.233-.239.233-.455v-.045c0-.561-.153-.997-.46-1.307-.303-.31-.763-.466-1.381-.466-.64 0-1.142.14-1.505.42-.364.28-.62.58-.767.898l-1.273-.454c.227-.53.53-.944.909-1.24.382-.298.799-.507 1.25-.624a5.184 5.184 0 011.341-.182c.28 0 .602.034.966.102.367.065.721.2 1.062.404.345.204.631.513.858.926.227.413.341.966.341 1.659V35h-1.341v-1.182h-.068c-.091.19-.242.392-.455.608-.212.216-.494.4-.846.551-.352.152-.782.228-1.29.228zm.205-1.205c.53 0 .977-.104 1.341-.313a2.131 2.131 0 001.113-1.846v-1.227c-.057.068-.182.13-.375.187a6.29 6.29 0 01-.659.142 29.629 29.629 0 01-1.284.17c-.348.046-.674.12-.977.222-.3.099-.542.248-.728.45-.181.196-.272.465-.272.806 0 .466.172.818.517 1.057.348.235.79.352 1.324.352zm11.743-2.568v-5.16h1.34V35h-1.34v-1.477h-.091c-.205.443-.523.82-.955 1.13-.432.307-.977.46-1.636.46-.546 0-1.031-.119-1.455-.357-.424-.243-.757-.606-1-1.091-.242-.489-.363-1.104-.363-1.847v-5.545h1.34v5.454c0 .637.178 1.144.535 1.523.359.379.818.568 1.375.568.333 0 .672-.085 1.017-.255.348-.171.64-.432.875-.785.238-.352.358-.8.358-1.346zm7.592-5.16v1.137h-4.523v-1.136h4.523zm-3.205-2.09h1.341V32.5c0 .379.055.663.165.852.114.186.258.31.432.375.178.06.365.091.562.091.148 0 .269-.007.364-.023l.227-.045.273 1.205a2.733 2.733 0 01-.381.102 2.8 2.8 0 01-.619.057 2.7 2.7 0 01-1.114-.245 2.205 2.205 0 01-.897-.744c-.235-.333-.353-.754-.353-1.261v-8.682zm8.674 11c-.788 0-1.48-.188-2.074-.563-.591-.375-1.053-.9-1.387-1.574-.329-.674-.494-1.462-.494-2.363 0-.91.165-1.703.494-2.38.334-.679.796-1.205 1.387-1.58.594-.375 1.286-.563 2.074-.563.787 0 1.477.188 2.068.563.594.375 1.057.901 1.386 1.58.333.677.5 1.47.5 2.38 0 .901-.167 1.69-.5 2.363a3.77 3.77 0 01-1.386 1.574c-.591.375-1.281.563-2.068.563zm0-1.205c.598 0 1.091-.153 1.477-.46.386-.307.672-.71.858-1.21.185-.5.278-1.042.278-1.625s-.093-1.127-.278-1.63a2.755 2.755 0 00-.858-1.223c-.386-.31-.879-.465-1.477-.465-.599 0-1.091.155-1.478.465-.386.311-.672.718-.858 1.222a4.695 4.695 0 00-.278 1.63c0 .584.093 1.126.278 1.626.186.5.472.903.858 1.21.387.307.879.46 1.478.46zM270.821 35v-8.727h1.295v1.318h.091c.159-.432.447-.782.864-1.051a2.541 2.541 0 011.409-.404c.099 0 .222.002.369.006.148.004.26.01.336.017v1.364a4.073 4.073 0 00-.313-.051 3.071 3.071 0 00-.506-.04c-.424 0-.803.089-1.136.267a2.016 2.016 0 00-.784.727 1.964 1.964 0 00-.284 1.051V35h-1.341zm5.953 0v-8.727h1.341V35h-1.341zm.682-10.182a.953.953 0 01-.676-.267.857.857 0 01-.279-.642c0-.25.093-.464.279-.642a.953.953 0 01.676-.267c.261 0 .485.089.67.267.19.178.285.392.285.642s-.095.464-.285.642a.932.932 0 01-.67.267zm9.297 3.41l-1.205.34a2.206 2.206 0 00-.335-.585 1.628 1.628 0 00-.591-.477c-.25-.125-.57-.188-.96-.188-.534 0-.979.123-1.335.37-.353.242-.529.55-.529.926 0 .333.122.596.364.79.242.193.621.354 1.136.482l1.296.319c.78.189 1.361.479 1.744.869.383.386.574.884.574 1.494 0 .5-.144.947-.432 1.341-.284.394-.682.705-1.193.932-.511.227-1.106.34-1.784.34-.89 0-1.627-.192-2.21-.579-.584-.386-.953-.95-1.108-1.693l1.272-.318c.122.47.351.822.688 1.057.341.235.786.352 1.335.352.625 0 1.121-.133 1.489-.398.371-.269.557-.59.557-.966 0-.303-.106-.556-.319-.761-.212-.208-.537-.364-.977-.466l-1.454-.34c-.8-.19-1.387-.484-1.762-.881-.371-.402-.557-.904-.557-1.506 0-.493.139-.928.415-1.307.28-.379.661-.676 1.142-.892.485-.216 1.034-.324 1.648-.324.864 0 1.542.19 2.034.568.496.38.849.88 1.057 1.5zm5.836 6.954c-.84 0-1.566-.186-2.176-.557a3.733 3.733 0 01-1.403-1.568c-.326-.674-.489-1.459-.489-2.353 0-.893.163-1.681.489-2.363.329-.686.788-1.22 1.375-1.602.591-.387 1.28-.58 2.068-.58.455 0 .904.076 1.347.227a3.34 3.34 0 011.21.739c.364.337.653.784.869 1.34.216.558.324 1.243.324 2.058v.568h-6.727v-1.16h5.363c0-.492-.098-.931-.295-1.317a2.225 2.225 0 00-.83-.915c-.356-.224-.776-.335-1.261-.335-.534 0-.996.132-1.386.397a2.608 2.608 0 00-.892 1.023c-.209.42-.313.871-.313 1.352v.773c0 .66.114 1.218.341 1.676.231.455.551.801.96 1.04.409.235.885.352 1.426.352a2.9 2.9 0 00.955-.147c.288-.103.536-.254.744-.455.209-.205.37-.458.483-.761l1.296.363a2.88 2.88 0 01-.688 1.16c-.322.329-.719.587-1.193.772a4.426 4.426 0 01-1.597.273zm-.818-10.091l1.387-2.637h1.568l-1.773 2.637h-1.182zm12.654 3.136l-1.205.341a2.233 2.233 0 00-.335-.585 1.628 1.628 0 00-.591-.477c-.25-.125-.57-.188-.96-.188-.534 0-.979.123-1.335.37-.353.242-.529.55-.529.926 0 .333.121.596.364.79.242.193.621.354 1.136.482l1.296.319c.78.189 1.361.479 1.744.869.383.386.574.884.574 1.494 0 .5-.144.947-.432 1.341-.284.394-.682.705-1.193.932-.512.227-1.106.34-1.784.34-.89 0-1.627-.192-2.211-.579-.583-.386-.952-.95-1.107-1.693l1.272-.318c.121.47.351.822.688 1.057.341.235.786.352 1.335.352.625 0 1.121-.133 1.489-.398.371-.269.556-.59.556-.966 0-.303-.106-.556-.318-.761-.212-.208-.538-.364-.977-.466l-1.455-.34c-.799-.19-1.386-.484-1.761-.881-.371-.402-.557-.904-.557-1.506 0-.493.139-.928.415-1.307.28-.379.661-.676 1.142-.892.485-.216 1.034-.324 1.648-.324.863 0 1.541.19 2.034.568.496.38.848.88 1.057 1.5zm8.427 3.5v-.068c.008-.723.084-1.3.228-1.727.143-.428.348-.775.613-1.04s.584-.51.955-.733c.223-.136.424-.297.602-.483.178-.19.318-.407.42-.653.107-.247.16-.52.16-.819 0-.37-.088-.693-.262-.965a1.751 1.751 0 00-.699-.631 2.114 2.114 0 00-.971-.222c-.311 0-.61.065-.898.194a1.743 1.743 0 00-.722.608c-.193.276-.305.638-.335 1.085h-1.432c.031-.644.197-1.195.5-1.654a3.014 3.014 0 011.211-1.05 3.811 3.811 0 011.676-.364c.666 0 1.246.132 1.738.397.497.265.879.63 1.148 1.091.273.462.409.989.409 1.58 0 .416-.064.793-.193 1.13a2.795 2.795 0 01-.545.904c-.235.265-.519.5-.853.704a3.54 3.54 0 00-.801.66 2.078 2.078 0 00-.437.812c-.091.314-.141.706-.148 1.176v.068h-1.364zm.728 3.364a.985.985 0 01-.722-.301.983.983 0 01-.301-.722c0-.28.1-.52.301-.721a.984.984 0 01.722-.302c.28 0 .52.1.721.302.201.2.301.44.301.721a.96.96 0 01-.142.512c-.091.155-.214.28-.369.375a.975.975 0 01-.511.136z" fill="#000"/></svg>