<svg width="360" height="59" fill="none" xmlns="http://www.w3.org/2000/svg"><rect width="360" height="59" rx="13" fill="#D3C756"/><path d="M26.41 35V23.364h1.408V33.75h5.41V35h-6.819zm12.476.182c-.84 0-1.566-.186-2.176-.557a3.738 3.738 0 01-1.403-1.568c-.326-.674-.489-1.459-.489-2.353 0-.893.163-1.681.489-2.363.33-.686.788-1.22 1.375-1.602.59-.387 1.28-.58 2.068-.58.455 0 .903.076 1.347.227.443.152.846.398 1.21.739.363.337.653.784.87 1.34.215.558.323 1.243.323 2.058v.568h-6.727v-1.16h5.363c0-.492-.098-.931-.295-1.317a2.226 2.226 0 00-.83-.915c-.356-.224-.776-.335-1.261-.335-.534 0-.996.132-1.386.397a2.615 2.615 0 00-.892 1.023c-.209.42-.313.871-.313 1.352v.773c0 .66.114 1.218.341 1.676.231.455.551.801.96 1.04.41.235.885.352 1.426.352.353 0 .67-.049.955-.147.288-.103.536-.254.744-.455.209-.205.37-.458.483-.761l1.296.363c-.137.44-.366.826-.688 1.16-.322.329-.72.587-1.193.772a4.426 4.426 0 01-1.597.273zm16.336-6.955l-1.205.341a2.234 2.234 0 00-.335-.585 1.626 1.626 0 00-.591-.477c-.25-.125-.57-.188-.96-.188-.534 0-.98.123-1.336.37-.352.242-.528.55-.528.926 0 .333.121.596.364.79.242.193.62.354 1.136.482l1.295.319c.78.189 1.362.479 1.745.869.382.386.574.884.574 1.494 0 .5-.144.947-.432 1.341-.284.394-.682.705-1.193.932-.512.227-1.106.34-1.784.34-.89 0-1.627-.192-2.21-.579-.584-.386-.953-.95-1.109-1.693l1.273-.318c.121.47.35.822.688 1.057.34.235.786.352 1.335.352.625 0 1.121-.133 1.489-.398.37-.269.556-.59.556-.966 0-.303-.106-.556-.318-.761-.212-.208-.538-.364-.977-.466l-1.455-.34c-.799-.19-1.386-.484-1.761-.881-.371-.402-.557-.904-.557-1.506 0-.493.138-.928.415-1.307.28-.379.66-.676 1.142-.892.485-.216 1.034-.324 1.648-.324.863 0 1.541.19 2.034.568.496.38.848.88 1.057 1.5zm5.973-1.954v1.136h-4.523v-1.136h4.523zm-3.205-2.091h1.341V32.5c0 .379.055.663.165.852.113.186.257.31.432.375.178.06.365.091.562.091.148 0 .269-.007.364-.023l.227-.045.273 1.205c-.091.034-.218.068-.381.102-.163.038-.37.057-.62.057-.378 0-.75-.082-1.113-.245a2.213 2.213 0 01-.898-.744c-.234-.333-.352-.754-.352-1.261v-8.682zm7.79 11.023a3.546 3.546 0 01-1.506-.313 2.584 2.584 0 01-1.074-.915c-.265-.401-.397-.886-.397-1.454 0-.5.098-.906.295-1.216.197-.315.46-.56.79-.739a4.15 4.15 0 011.09-.398c.402-.09.806-.162 1.21-.216.531-.068.961-.119 1.29-.153.334-.038.577-.1.728-.187.155-.088.233-.239.233-.455v-.045c0-.561-.153-.997-.46-1.307-.303-.31-.764-.466-1.381-.466-.64 0-1.142.14-1.506.42-.363.28-.619.58-.767.898l-1.272-.454c.227-.53.53-.944.909-1.24.382-.298.799-.507 1.25-.624a5.191 5.191 0 011.34-.182c.28 0 .603.034.966.102a3.09 3.09 0 011.063.404c.345.204.63.513.858.926.227.413.34.966.34 1.659V35h-1.34v-1.182h-.068a2.36 2.36 0 01-.455.608c-.212.216-.494.4-.846.551-.353.152-.783.228-1.29.228zM65.984 34c.53 0 .978-.104 1.341-.313a2.127 2.127 0 001.114-1.846v-1.227c-.057.068-.182.13-.375.187-.19.053-.41.1-.66.142a29.81 29.81 0 01-1.283.17c-.349.046-.674.12-.977.222-.3.099-.542.248-.728.45-.182.196-.272.465-.272.806 0 .466.172.818.516 1.057.349.235.79.352 1.324.352zm10.039-7.727v1.136H71.5v-1.136h4.523zm-3.205-2.091h1.341V32.5c0 .379.055.663.165.852.114.186.257.31.432.375.178.06.365.091.562.091.148 0 .27-.007.364-.023l.227-.045.273 1.205c-.091.034-.218.068-.38.102a2.8 2.8 0 01-.62.057c-.379 0-.75-.082-1.114-.245a2.212 2.212 0 01-.897-.744c-.235-.333-.353-.754-.353-1.261v-8.682zM78.04 35v-8.727h1.34V35h-1.34zm.682-10.182a.953.953 0 01-.676-.267.858.858 0 01-.279-.642c0-.25.093-.464.279-.642a.953.953 0 01.676-.267c.261 0 .484.089.67.267a.85.85 0 01.284.642.85.85 0 01-.284.642.933.933 0 01-.67.267zm6.66 10.364c-.788 0-1.48-.188-2.074-.563-.59-.375-1.053-.9-1.386-1.574-.33-.674-.494-1.462-.494-2.363 0-.91.164-1.703.494-2.38.333-.679.795-1.205 1.386-1.58.595-.375 1.286-.563 2.074-.563.788 0 1.477.188 2.068.563.595.375 1.057.901 1.387 1.58.333.677.5 1.47.5 2.38 0 .901-.167 1.69-.5 2.363a3.769 3.769 0 01-1.387 1.574c-.59.375-1.28.563-2.068.563zm0-1.205c.599 0 1.091-.153 1.477-.46.387-.307.673-.71.858-1.21.186-.5.279-1.042.279-1.625s-.093-1.127-.279-1.63a2.75 2.75 0 00-.858-1.223c-.386-.31-.878-.465-1.477-.465-.598 0-1.09.155-1.477.465a2.75 2.75 0 00-.858 1.222 4.681 4.681 0 00-.278 1.63c0 .584.092 1.126.278 1.626.186.5.472.903.858 1.21.386.307.879.46 1.477.46zm7.342-4.227V35h-1.34v-8.727h1.295v1.363h.114c.204-.443.515-.799.931-1.068.417-.273.955-.409 1.614-.409.591 0 1.108.121 1.551.364.443.238.788.602 1.034 1.09.246.486.37 1.1.37 1.841V35h-1.341v-5.454c0-.686-.178-1.22-.534-1.603-.356-.386-.845-.58-1.466-.58-.428 0-.81.093-1.148.279a1.993 1.993 0 00-.79.813c-.193.356-.29.787-.29 1.295zm9.36 0V35h-1.341v-8.727h1.295v1.363h.114c.205-.443.515-.799.932-1.068.416-.273.954-.409 1.613-.409.591 0 1.108.121 1.552.364.443.238.787.602 1.034 1.09.246.486.369 1.1.369 1.841V35h-1.341v-5.454c0-.686-.178-1.22-.534-1.603-.356-.386-.845-.58-1.466-.58a2.34 2.34 0 00-1.148.279 1.992 1.992 0 00-.789.813c-.194.356-.29.787-.29 1.295zm11.677 5.432c-.841 0-1.566-.186-2.176-.557a3.733 3.733 0 01-1.403-1.568c-.326-.674-.489-1.459-.489-2.353 0-.893.163-1.681.489-2.363.329-.686.788-1.22 1.375-1.602.591-.387 1.28-.58 2.068-.58.455 0 .903.076 1.347.227a3.34 3.34 0 011.21.739c.363.337.653.784.869 1.34.216.558.324 1.243.324 2.058v.568h-6.727v-1.16h5.363c0-.492-.098-.931-.295-1.317a2.225 2.225 0 00-.83-.915c-.356-.224-.776-.335-1.261-.335-.534 0-.996.132-1.386.397a2.608 2.608 0 00-.892 1.023c-.209.42-.313.871-.313 1.352v.773c0 .66.114 1.218.341 1.676.231.455.551.801.96 1.04.409.235.885.352 1.426.352a2.9 2.9 0 00.955-.147c.288-.103.536-.254.744-.455.209-.205.37-.458.483-.761l1.296.363a2.88 2.88 0 01-.688 1.16c-.322.329-.72.587-1.193.772a4.43 4.43 0 01-1.597.273zm5.654-.182v-8.727h1.295v1.363h.114c.182-.465.475-.827.881-1.085.405-.261.892-.392 1.46-.392.576 0 1.055.13 1.437.392.387.258.688.62.904 1.085h.091c.223-.45.558-.808 1.005-1.073.447-.27.983-.404 1.608-.404.781 0 1.419.244 1.915.733.496.485.744 1.24.744 2.267V35h-1.341v-5.84c0-.645-.176-1.105-.528-1.382a1.955 1.955 0 00-1.244-.414c-.614 0-1.089.185-1.426.556-.338.368-.506.834-.506 1.398V35h-1.364v-5.977c0-.497-.161-.896-.483-1.2-.322-.306-.736-.46-1.244-.46-.349 0-.674.093-.977.279-.3.186-.542.443-.728.773a2.29 2.29 0 00-.272 1.13V35h-1.341zm17.565.182c-.841 0-1.566-.186-2.176-.557a3.733 3.733 0 01-1.403-1.568c-.326-.674-.489-1.459-.489-2.353 0-.893.163-1.681.489-2.363.329-.686.787-1.22 1.375-1.602.59-.387 1.28-.58 2.068-.58.454 0 .903.076 1.346.227.444.152.847.398 1.211.739.363.337.653.784.869 1.34.216.558.324 1.243.324 2.058v.568h-6.728v-1.16h5.364c0-.492-.098-.931-.295-1.317a2.232 2.232 0 00-.83-.915c-.356-.224-.776-.335-1.261-.335-.534 0-.996.132-1.387.397a2.623 2.623 0 00-.892 1.023c-.208.42-.312.871-.312 1.352v.773c0 .66.113 1.218.341 1.676.231.455.551.801.96 1.04.409.235.884.352 1.426.352.352 0 .671-.049.955-.147.288-.103.536-.254.744-.455.208-.205.369-.458.483-.761l1.295.363c-.136.44-.365.826-.687 1.16-.322.329-.72.587-1.193.772a4.43 4.43 0 01-1.597.273zm6.994-5.432V35h-1.34v-8.727h1.295v1.363h.114c.204-.443.515-.799.931-1.068.417-.273.955-.409 1.614-.409.591 0 1.108.121 1.551.364a2.45 2.45 0 011.034 1.09c.247.486.37 1.1.37 1.841V35h-1.341v-5.454c0-.686-.178-1.22-.534-1.603-.356-.386-.845-.58-1.466-.58a2.34 2.34 0 00-1.148.279 1.994 1.994 0 00-.79.813c-.193.356-.29.787-.29 1.295zm11.814-3.477v1.136h-4.522v-1.136h4.522zm-3.204-2.091h1.341V32.5c0 .379.055.663.164.852.114.186.258.31.432.375.178.06.366.091.563.091.148 0 .269-.007.363-.023l.228-.045.272 1.205c-.09.034-.217.068-.38.102-.163.038-.37.057-.62.057-.378 0-.75-.082-1.113-.245a2.215 2.215 0 01-.898-.744c-.235-.333-.352-.754-.352-1.261v-8.682zm13.38 11c-.84 0-1.566-.186-2.176-.557a3.733 3.733 0 01-1.403-1.568c-.326-.674-.489-1.459-.489-2.353 0-.893.163-1.681.489-2.363.329-.686.788-1.22 1.375-1.602.591-.387 1.28-.58 2.068-.58.455 0 .904.076 1.347.227a3.34 3.34 0 011.21.739c.364.337.653.784.869 1.34.216.558.324 1.243.324 2.058v.568h-6.727v-1.16h5.363c0-.492-.098-.931-.295-1.317a2.225 2.225 0 00-.83-.915c-.356-.224-.776-.335-1.261-.335-.534 0-.996.132-1.386.397a2.608 2.608 0 00-.892 1.023c-.209.42-.313.871-.313 1.352v.773c0 .66.114 1.218.341 1.676.231.455.551.801.96 1.04.409.235.885.352 1.426.352a2.9 2.9 0 00.955-.147c.288-.103.536-.254.744-.455.209-.205.37-.458.483-.761l1.296.363a2.88 2.88 0 01-.688 1.16c-.322.329-.719.587-1.193.772a4.426 4.426 0 01-1.597.273zm11.836-6.955l-1.205.341a2.233 2.233 0 00-.335-.585 1.628 1.628 0 00-.591-.477c-.25-.125-.57-.188-.96-.188-.534 0-.979.123-1.335.37-.353.242-.529.55-.529.926 0 .333.121.596.364.79.242.193.621.354 1.136.482l1.296.319c.78.189 1.361.479 1.744.869.383.386.574.884.574 1.494 0 .5-.144.947-.432 1.341-.284.394-.682.705-1.193.932-.512.227-1.106.34-1.784.34-.89 0-1.627-.192-2.211-.579-.583-.386-.952-.95-1.107-1.693l1.272-.318c.121.47.351.822.688 1.057.341.235.786.352 1.335.352.625 0 1.121-.133 1.489-.398.371-.269.556-.59.556-.966 0-.303-.106-.556-.318-.761-.212-.208-.538-.364-.977-.466l-1.455-.34c-.799-.19-1.386-.484-1.761-.881-.371-.402-.557-.904-.557-1.506 0-.493.139-.928.415-1.307.28-.379.661-.676 1.142-.892.485-.216 1.034-.324 1.648-.324.863 0 1.541.19 2.034.568.496.38.848.88 1.057 1.5zm5.973-1.954v1.136h-4.523v-1.136h4.523zm-3.205-2.091h1.341V32.5c0 .379.055.663.165.852.114.186.257.31.432.375.178.06.365.091.562.091.148 0 .269-.007.364-.023l.227-.045.273 1.205a2.733 2.733 0 01-.381.102 2.8 2.8 0 01-.619.057 2.7 2.7 0 01-1.114-.245 2.215 2.215 0 01-.898-.744c-.234-.333-.352-.754-.352-1.261v-8.682zm9.909 5.204v1.25h-5.091v-1.25h5.091zm2.36 5.614v-8.727h1.341V35h-1.341zm.681-10.182a.954.954 0 01-.676-.267.86.86 0 01-.278-.642.86.86 0 01.278-.642.955.955 0 01.676-.267c.262 0 .485.089.671.267a.851.851 0 01.284.642c0 .25-.095.464-.284.642a.934.934 0 01-.671.267zm4.456-1.454V35h-1.34V23.364h1.34zm13.138 4.863l-1.204.341a2.238 2.238 0 00-.336-.585 1.616 1.616 0 00-.59-.477c-.25-.125-.571-.188-.961-.188-.534 0-.979.123-1.335.37-.352.242-.528.55-.528.926 0 .333.121.596.363.79.243.193.622.354 1.137.482l1.295.319c.78.189 1.362.479 1.744.869.383.386.574.884.574 1.494 0 .5-.144.947-.432 1.341-.284.394-.681.705-1.193.932-.511.227-1.106.34-1.784.34-.89 0-1.627-.192-2.21-.579-.583-.386-.953-.95-1.108-1.693l1.273-.318c.121.47.35.822.687 1.057.341.235.786.352 1.335.352.625 0 1.122-.133 1.489-.398.371-.269.557-.59.557-.966 0-.303-.106-.556-.318-.761-.212-.208-.538-.364-.978-.466l-1.454-.34c-.799-.19-1.386-.484-1.761-.881-.372-.402-.557-.904-.557-1.506 0-.493.138-.928.415-1.307.28-.379.661-.676 1.142-.892.484-.216 1.034-.324 1.647-.324.864 0 1.542.19 2.034.568.497.38.849.88 1.057 1.5zM213.29 35v-8.727h1.341V35h-1.341zm.682-10.182a.955.955 0 01-.677-.267.86.86 0 01-.278-.642.86.86 0 01.278-.642.955.955 0 01.677-.267c.261 0 .484.089.67.267a.851.851 0 01.284.642c0 .25-.095.464-.284.642a.934.934 0 01-.67.267zM217.087 35v-8.727h1.295v1.363h.114c.182-.465.475-.827.88-1.085.406-.261.892-.392 1.461-.392.575 0 1.055.13 1.437.392.387.258.688.62.904 1.085h.09c.224-.45.559-.808 1.006-1.073.447-.27.983-.404 1.608-.404.78 0 1.419.244 1.915.733.496.485.744 1.24.744 2.267V35H227.2v-5.84c0-.645-.176-1.105-.528-1.382a1.955 1.955 0 00-1.244-.414c-.614 0-1.089.185-1.427.556-.337.368-.505.834-.505 1.398V35h-1.364v-5.977c0-.497-.161-.896-.483-1.2-.322-.306-.737-.46-1.244-.46-.349 0-.674.093-.977.279-.3.186-.542.443-.728.773a2.279 2.279 0 00-.272 1.13V35h-1.341zm13.906 3.273v-12h1.295v1.386h.159c.099-.151.235-.345.41-.58.178-.238.431-.45.761-.636.333-.19.784-.284 1.352-.284.735 0 1.383.184 1.943.551.561.368.998.889 1.313 1.563.314.674.471 1.47.471 2.386 0 .924-.157 1.726-.471 2.404-.315.674-.75 1.197-1.307 1.568-.557.367-1.199.55-1.926.55-.561 0-1.01-.092-1.347-.278-.337-.189-.596-.403-.778-.642a8.77 8.77 0 01-.421-.602h-.113v4.614h-1.341zm1.318-7.637c0 .66.097 1.24.29 1.745.193.5.475.892.846 1.176.372.28.826.42 1.364.42.561 0 1.028-.147 1.403-.443.379-.3.663-.7.853-1.204a4.73 4.73 0 00.29-1.694c0-.613-.095-1.166-.285-1.659-.185-.496-.467-.888-.846-1.176-.375-.291-.847-.437-1.415-.437-.545 0-1.004.138-1.375.414-.371.273-.651.656-.841 1.148-.189.489-.284 1.059-.284 1.71zm9.773-7.272V35h-1.341V23.364h1.341zm6.115 11.818c-.841 0-1.566-.186-2.176-.557a3.742 3.742 0 01-1.404-1.568c-.325-.674-.488-1.459-.488-2.353 0-.893.163-1.681.488-2.363.33-.686.788-1.22 1.375-1.602.591-.387 1.281-.58 2.068-.58.455 0 .904.076 1.347.227.443.152.847.398 1.21.739.364.337.654.784.87 1.34.216.558.323 1.243.323 2.058v.568h-6.727v-1.16h5.364c0-.492-.099-.931-.296-1.317a2.223 2.223 0 00-.829-.915c-.356-.224-.777-.335-1.262-.335-.534 0-.996.132-1.386.397a2.615 2.615 0 00-.892 1.023c-.208.42-.312.871-.312 1.352v.773c0 .66.113 1.218.34 1.676.232.455.552.801.961 1.04.409.235.884.352 1.426.352.352 0 .67-.049.954-.147.288-.103.536-.254.745-.455.208-.205.369-.458.483-.761l1.295.363c-.136.44-.365.826-.687 1.16a3.35 3.35 0 01-1.194.772 4.42 4.42 0 01-1.596.273zm11.903-3.455v-.068c.008-.723.084-1.3.228-1.727.143-.428.348-.775.613-1.04s.584-.51.955-.733c.223-.136.424-.297.602-.483.178-.19.318-.407.42-.653.107-.247.16-.52.16-.819 0-.37-.088-.693-.262-.965a1.751 1.751 0 00-.699-.631 2.114 2.114 0 00-.971-.222c-.311 0-.61.065-.898.194a1.743 1.743 0 00-.722.608c-.193.276-.305.638-.335 1.085h-1.432c.031-.644.197-1.195.5-1.654a3.014 3.014 0 011.211-1.05 3.811 3.811 0 011.676-.364c.666 0 1.246.132 1.738.397.497.265.879.63 1.148 1.091.273.462.409.989.409 1.58 0 .416-.064.793-.193 1.13a2.795 2.795 0 01-.545.904c-.235.265-.519.5-.853.704a3.54 3.54 0 00-.801.66 2.078 2.078 0 00-.437.812c-.091.314-.141.706-.148 1.176v.068h-1.364zm.728 3.364a.985.985 0 01-.722-.301.983.983 0 01-.301-.722c0-.28.1-.52.301-.721a.984.984 0 01.722-.302c.28 0 .52.1.721.302.201.2.301.44.301.721a.96.96 0 01-.142.512c-.091.155-.214.28-.369.375a.975.975 0 01-.511.136z" fill="#000"/></svg>