<svg width="75" height="24" fill="none" xmlns="http://www.w3.org/2000/svg"><rect width="75" height="24" rx="6" fill="#fff"/><path d="M17.773 8.273a1.784 1.784 0 00-.83-1.341c-.485-.318-1.08-.477-1.784-.477-.515 0-.966.083-1.352.25a2.16 2.16 0 00-.898.687 1.648 1.648 0 00-.318.994c0 .311.074.578.222.802.151.22.344.403.579.55.235.145.481.264.739.359.257.09.494.164.71.221l1.182.318c.303.08.64.19 1.011.33.375.14.733.331 1.074.574.345.238.629.545.852.92.224.375.335.835.335 1.38 0 .63-.164 1.198-.494 1.706-.326.507-.803.91-1.432 1.21-.625.299-1.384.448-2.278.448-.833 0-1.555-.134-2.165-.403-.606-.269-1.083-.644-1.432-1.125A3.209 3.209 0 0110.91 14h1.455c.037.44.185.803.443 1.09a2.4 2.4 0 00.989.637c.401.137.833.205 1.295.205.538 0 1.02-.087 1.449-.261.428-.179.767-.425 1.017-.74.25-.317.375-.689.375-1.113 0-.386-.108-.7-.324-.943-.216-.242-.5-.44-.852-.59a8.954 8.954 0 00-1.142-.399l-1.432-.409c-.91-.261-1.629-.634-2.16-1.119-.53-.485-.795-1.12-.795-1.903 0-.652.176-1.22.529-1.705a3.509 3.509 0 011.431-1.136c.603-.273 1.275-.41 2.018-.41.75 0 1.416.135 2 .404.583.265 1.045.629 1.386 1.09.345.463.526.988.545 1.575h-1.363zm7.203 8.909c-.818 0-1.523-.193-2.114-.58a3.777 3.777 0 01-1.363-1.596c-.319-.678-.478-1.453-.478-2.324 0-.886.163-1.669.489-2.347.33-.682.788-1.214 1.375-1.596.59-.387 1.28-.58 2.068-.58.614 0 1.167.114 1.66.341.492.227.895.545 1.21.955.314.409.509.886.585 1.431h-1.341c-.102-.397-.33-.75-.682-1.056-.349-.311-.818-.466-1.41-.466-.522 0-.98.136-1.374.409-.39.269-.695.65-.915 1.142-.216.488-.324 1.062-.324 1.721 0 .675.106 1.262.318 1.762.216.5.52.888.91 1.165.393.276.855.414 1.386.414.348 0 .665-.06.949-.181.284-.122.524-.296.721-.523.197-.227.337-.5.42-.819h1.342c-.076.516-.264.98-.563 1.393-.295.409-.687.734-1.176.977-.485.238-1.05.358-1.693.358zm9.051 0c-.84 0-1.566-.186-2.176-.557a3.737 3.737 0 01-1.404-1.568c-.325-.674-.488-1.459-.488-2.353 0-.893.163-1.681.488-2.363.33-.686.788-1.22 1.375-1.602.591-.387 1.28-.58 2.069-.58.454 0 .903.076 1.346.227.443.152.847.398 1.21.739.364.337.654.784.87 1.34.216.558.324 1.243.324 2.058v.568h-6.728v-1.16h5.364c0-.492-.099-.931-.296-1.317a2.226 2.226 0 00-.829-.915c-.356-.224-.776-.335-1.261-.335-.535 0-.997.132-1.387.397a2.615 2.615 0 00-.892 1.023c-.208.42-.312.871-.312 1.352v.773c0 .66.113 1.218.34 1.676.232.455.552.801.96 1.04.41.235.885.352 1.427.352.352 0 .67-.049.954-.148.288-.102.536-.253.745-.454.208-.204.37-.458.483-.761l1.295.363c-.136.44-.365.826-.687 1.16-.322.329-.72.587-1.193.772a4.426 4.426 0 01-1.597.273zM33.254 7.09l-1.772-2.636h1.568l1.386 2.636h-1.182zm7.767 4.659V17h-1.34V8.273h1.295v1.363h.114c.204-.443.515-.799.931-1.068.417-.273.955-.409 1.614-.409.59 0 1.108.121 1.551.364.443.238.788.602 1.034 1.09.246.486.37 1.1.37 1.841V17h-1.341v-5.454c0-.686-.178-1.22-.535-1.603-.356-.386-.844-.58-1.465-.58-.428 0-.811.093-1.148.279a1.992 1.992 0 00-.79.813c-.193.356-.29.787-.29 1.295zM52.7 17.182c-.841 0-1.566-.186-2.176-.557a3.738 3.738 0 01-1.404-1.568c-.325-.674-.488-1.459-.488-2.353 0-.893.163-1.681.488-2.363.33-.686.788-1.22 1.375-1.602.591-.387 1.28-.58 2.069-.58.454 0 .903.076 1.346.227.443.152.847.398 1.21.739.364.337.654.784.87 1.34.216.558.324 1.243.324 2.058v.568h-6.728v-1.16h5.364c0-.492-.099-.931-.296-1.317a2.227 2.227 0 00-.83-.915c-.355-.224-.776-.335-1.26-.335-.535 0-.997.132-1.387.397a2.616 2.616 0 00-.892 1.023c-.208.42-.312.871-.312 1.352v.773c0 .66.113 1.218.34 1.676.232.455.552.801.96 1.04.41.235.885.352 1.427.352.352 0 .67-.049.954-.148.288-.102.536-.253.745-.454.208-.204.369-.458.483-.761l1.295.363c-.136.44-.365.826-.687 1.16-.322.329-.72.587-1.194.772a4.426 4.426 0 01-1.596.273zm11.835-6.955l-1.205.341a2.235 2.235 0 00-.335-.585 1.627 1.627 0 00-.59-.477c-.25-.125-.57-.188-.96-.188-.535 0-.98.123-1.336.37-.352.242-.528.55-.528.926 0 .333.12.596.363.79.243.193.621.354 1.137.482l1.295.319c.78.189 1.362.479 1.744.869.383.386.574.884.574 1.494 0 .5-.144.947-.432 1.341-.284.394-.681.705-1.193.932-.511.227-1.106.34-1.784.34-.89 0-1.627-.192-2.21-.579-.584-.386-.953-.95-1.108-1.693l1.273-.318c.12.47.35.822.687 1.057.341.235.786.352 1.335.352.625 0 1.122-.133 1.489-.398.371-.269.557-.59.557-.966 0-.303-.106-.556-.318-.761-.212-.208-.538-.364-.978-.466l-1.454-.34c-.8-.19-1.387-.484-1.762-.882-.37-.401-.556-.903-.556-1.505 0-.493.138-.928.414-1.307.28-.379.661-.676 1.142-.892.485-.216 1.035-.324 1.648-.324.864 0 1.542.19 2.034.568.497.38.849.88 1.057 1.5z" fill="#000"/></svg>