<svg width="75" height="24" fill="none" xmlns="http://www.w3.org/2000/svg"><rect width="75" height="24" rx="6" fill="#fff"/><path d="M15 17h-3.59V5.364h3.75c1.128 0 2.094.233 2.897.699.803.462 1.418 1.126 1.846 1.994.428.863.643 1.898.643 3.102 0 1.212-.216 2.256-.648 3.13a4.615 4.615 0 01-1.887 2.012c-.825.466-1.83.699-3.011.699zm-2.182-1.25h2.091c.962 0 1.76-.186 2.392-.557a3.431 3.431 0 001.415-1.585c.31-.686.466-1.502.466-2.449 0-.94-.154-1.748-.46-2.426a3.395 3.395 0 00-1.375-1.568c-.61-.368-1.37-.551-2.279-.551h-2.25v9.136zm12.478 1.454a3.545 3.545 0 01-1.506-.312 2.584 2.584 0 01-1.074-.915c-.265-.401-.398-.886-.398-1.454 0-.5.099-.906.296-1.216.197-.315.46-.56.79-.739.329-.178.693-.31 1.09-.397.402-.091.805-.163 1.21-.216.53-.069.96-.12 1.29-.154.334-.038.576-.1.728-.187.155-.088.232-.239.232-.455v-.045c0-.561-.153-.997-.46-1.307-.303-.31-.763-.466-1.38-.466-.64 0-1.142.14-1.506.42-.364.28-.62.58-.767.898l-1.273-.455c.227-.53.53-.943.91-1.238.382-.3.798-.508 1.25-.625a5.19 5.19 0 011.34-.182c.28 0 .602.034.966.102.367.065.722.2 1.063.404.344.204.63.513.857.926.228.413.341.966.341 1.659V17h-1.34v-1.182h-.069a2.36 2.36 0 01-.454.608c-.212.216-.494.4-.847.551-.352.152-.782.227-1.29.227zM25.5 16c.53 0 .977-.104 1.34-.313a2.128 2.128 0 001.114-1.846v-1.227c-.056.068-.181.13-.375.187-.189.053-.409.1-.659.142a29.952 29.952 0 01-1.284.17c-.348.046-.674.12-.977.222-.3.099-.542.248-.727.45-.182.196-.273.465-.273.806 0 .466.172.818.517 1.057.349.235.79.352 1.324.352zm10.038-7.727v1.136h-4.522V8.273h4.522zm-3.204-2.091h1.34V14.5c0 .379.056.663.166.852.113.186.257.31.431.375.178.06.366.091.563.091.147 0 .269-.007.363-.022l.228-.046.272 1.204a2.73 2.73 0 01-.38.103c-.163.038-.37.057-.62.057-.378 0-.75-.082-1.113-.245a2.213 2.213 0 01-.898-.744c-.235-.333-.352-.754-.352-1.261V6.182zm8.787 11c-.841 0-1.567-.186-2.176-.557a3.737 3.737 0 01-1.404-1.568c-.326-.674-.488-1.459-.488-2.353 0-.893.162-1.681.488-2.363.33-.686.788-1.22 1.375-1.602.591-.387 1.28-.58 2.068-.58.455 0 .904.076 1.347.227.443.152.847.398 1.21.739.364.337.654.784.87 1.34.215.558.323 1.243.323 2.058v.568h-6.727v-1.16h5.364c0-.492-.099-.931-.296-1.317a2.227 2.227 0 00-.83-.915c-.355-.224-.776-.335-1.26-.335-.535 0-.997.132-1.387.397a2.615 2.615 0 00-.892 1.023c-.208.42-.313.871-.313 1.352v.773c0 .66.114 1.218.341 1.676.231.455.551.801.96 1.04.41.235.885.352 1.427.352.352 0 .67-.049.954-.148.288-.102.536-.253.745-.454.208-.204.369-.458.483-.761l1.295.363c-.136.44-.365.826-.688 1.16-.321.329-.72.587-1.193.772a4.426 4.426 0 01-1.596.273zm11.835-6.955l-1.205.341a2.235 2.235 0 00-.335-.585 1.627 1.627 0 00-.59-.477c-.25-.125-.57-.188-.96-.188-.535 0-.98.123-1.336.37-.352.242-.529.55-.529.926 0 .333.122.596.364.79.242.193.621.354 1.136.482l1.296.319c.78.189 1.362.479 1.744.869.383.386.574.884.574 1.494 0 .5-.144.947-.432 1.341-.284.394-.682.705-1.193.932-.511.227-1.106.34-1.784.34-.89 0-1.627-.192-2.21-.579-.584-.386-.953-.95-1.108-1.693l1.273-.318c.12.47.35.822.687 1.057.34.235.786.352 1.335.352.625 0 1.121-.133 1.489-.398.371-.269.557-.59.557-.966 0-.303-.106-.556-.319-.761-.212-.208-.537-.364-.977-.466l-1.454-.34c-.8-.19-1.387-.484-1.762-.882-.37-.401-.556-.903-.556-1.505 0-.493.138-.928.414-1.307.28-.379.661-.676 1.142-.892.485-.216 1.034-.324 1.648-.324.864 0 1.542.19 2.034.568.496.38.849.88 1.057 1.5z" fill="#000"/></svg>