<svg width="231" height="53" fill="none" xmlns="http://www.w3.org/2000/svg"><rect width="231" height="53" rx="10" fill="#D3C756"/><path d="M70.523 32h-1.812c-.052 0-.078-.026-.078-.078l.015-10.992c0-.042.021-.063.063-.063h1.797c.041 0 .062.021.062.063l.016 10.992c0 .052-.02.078-.063.078zm3.211 0h-1.601c-.084 0-.125-.037-.125-.11l-.016-10.898c0-.083.042-.125.125-.125h1.445l2.704 6.305-.079-6.18c0-.083.047-.125.141-.125h1.586c.063 0 .094.042.094.125l.015 10.914c0 .063-.026.094-.078.094H76.54l-2.773-5.89.117 5.765c0 .083-.05.125-.149.125zm7.555 0h-1.797c-.052 0-.078-.026-.078-.078l.031-10.992c0-.042.021-.063.063-.063h5.125c.052 0 .078.021.078.063v1.804c0 .042-.02.063-.063.063h-3.28v2.484h3.28c.042 0 .063.026.063.078l.016 1.813c0 .041-.026.062-.079.062h-3.28v4.688c0 .052-.027.078-.079.078zm7.82.156a2.964 2.964 0 01-1.57-.437 3.412 3.412 0 01-1.148-1.164 3.13 3.13 0 01-.43-1.61l.016-5.07c0-.594.143-1.128.43-1.602.28-.479.66-.861 1.14-1.148.479-.292 1-.438 1.562-.438.584 0 1.107.144 1.57.43.47.287.844.672 1.126 1.156.286.48.43 1.014.43 1.602l.015 5.07c0 .584-.14 1.117-.422 1.602-.286.49-.666.88-1.14 1.172-.475.291-1 .437-1.579.437zm0-1.93c.323 0 .605-.13.844-.39.24-.266.36-.563.36-.89l-.016-5.071c0-.354-.112-.654-.336-.898a1.104 1.104 0 00-.852-.368c-.328 0-.609.12-.843.36-.235.24-.352.541-.352.906v5.07c0 .35.117.651.352.907.234.25.515.375.843.375zm7.07 1.93a2.964 2.964 0 01-1.57-.437 3.343 3.343 0 01-1.14-1.164 3.174 3.174 0 01-.422-1.61v-.734c0-.057.026-.086.078-.086h1.797c.041 0 .062.029.062.086v.734c0 .35.118.651.352.907.234.25.516.375.844.375.333 0 .617-.128.851-.383.235-.26.352-.56.352-.899 0-.39-.255-.732-.766-1.023a6.037 6.037 0 00-.328-.188 12.54 12.54 0 00-.469-.265l-.53-.29a28.01 28.01 0 00-.5-.28c-.584-.344-1.02-.774-1.306-1.29a3.623 3.623 0 01-.421-1.75c0-.593.145-1.13.437-1.609a3.275 3.275 0 011.14-1.125 2.964 2.964 0 011.54-.422c.567 0 1.088.14 1.562.422.474.287.852.667 1.133 1.14a3.02 3.02 0 01.43 1.594v1.313c0 .041-.021.062-.063.062h-1.797c-.041 0-.062-.02-.062-.062l-.016-1.313c0-.375-.117-.68-.351-.914a1.142 1.142 0 00-.836-.351c-.328 0-.61.125-.844.375-.234.25-.352.547-.352.89 0 .35.073.641.22.875.15.235.424.459.82.672a38.163 38.163 0 01.79.438c.186.099.355.19.506.273l.274.14c.531.298.95.662 1.258 1.095.312.432.468.963.468 1.593 0 .61-.14 1.157-.422 1.64a3.213 3.213 0 01-1.14 1.15c-.474.28-1 .421-1.578.421zM106.462 32h-1.797c-.052 0-.078-.026-.078-.078l.031-10.992c0-.042.021-.063.063-.063h3.078c.979 0 1.752.3 2.32.899.573.593.86 1.403.86 2.43 0 .75-.149 1.403-.446 1.96-.302.552-.693.98-1.172 1.282-.479.302-1 .453-1.562.453h-1.219v4.03c0 .053-.026.079-.078.079zm1.297-9.234l-1.219.015v3.172h1.219c.338 0 .633-.161.883-.484.25-.328.375-.753.375-1.274 0-.416-.112-.758-.336-1.023-.224-.271-.532-.406-.922-.406zm6.14 9.234h-1.812c-.042 0-.063-.026-.063-.078l.032-10.992c0-.042.021-.063.062-.063h3.235c.578 0 1.109.14 1.593.422.485.281.87.659 1.157 1.133.291.474.437 1.01.437 1.61 0 .39-.06.744-.18 1.062-.119.317-.26.586-.421.804-.157.22-.3.38-.43.485.578.64.867 1.393.867 2.258l.016 3.28c0 .053-.026.079-.079.079H116.5c-.042 0-.062-.016-.062-.047v-3.312c0-.386-.136-.72-.407-1a1.334 1.334 0 00-1-.422h-1.054l-.016 4.703c0 .052-.021.078-.063.078zm1.454-9.219h-1.375v2.516h1.375c.328 0 .619-.123.875-.367.26-.245.39-.545.39-.899 0-.338-.125-.63-.375-.875a1.217 1.217 0 00-.89-.375zm3.523 9.14l1.984-10.991c.011-.042.037-.063.079-.063h2.32c.041 0 .068.021.078.063l1.906 10.992c.005.052-.015.078-.062.078h-1.774c-.052 0-.08-.026-.086-.078l-.172-1.172h-2.179l-.172 1.172c-.005.052-.031.078-.078.078h-1.781c-.042 0-.063-.026-.063-.078zm3.133-7.374l-.719 4.492h1.539l-.656-4.492-.094-.594-.07.594zM129.656 32h-1.804c-.047 0-.071-.026-.071-.078v-9.125h-2.078c-.052 0-.078-.026-.078-.078l.016-1.79c0-.041.02-.062.062-.062h6.078c.058 0 .086.021.086.063v1.789c0 .052-.021.078-.062.078h-2.102l.016 9.125c0 .052-.021.078-.063.078zm4.883 0h-1.812c-.053 0-.079-.026-.079-.078l.016-10.992c0-.042.021-.063.063-.063h1.796c.042 0 .063.021.063.063l.016 10.992c0 .052-.021.078-.063.078zm6.734 1.023l-1.101-1.117a3.04 3.04 0 01-1.203.25 2.965 2.965 0 01-1.563-.43 3.305 3.305 0 01-1.156-1.163 3.176 3.176 0 01-.43-1.618l.016-5.07c0-.568.141-1.094.422-1.578a3.214 3.214 0 011.125-1.164 2.925 2.925 0 011.586-.445c.567 0 1.088.14 1.562.421.474.287.852.67 1.133 1.149.287.479.43 1.018.43 1.617l.015 5.07c0 .308-.044.607-.132.899a3.69 3.69 0 01-.336.797l.992 1.007c.052.042.057.079.015.11l-1.257 1.265c-.037.032-.076.032-.118 0zm-2.304-2.796c.364 0 .656-.136.875-.407.218-.276.328-.567.328-.875l-.016-5.07c0-.344-.112-.64-.336-.89a1.093 1.093 0 00-.851-.376c-.36 0-.649.128-.867.383-.219.255-.329.55-.329.883v5.07c0 .386.125.696.375.93.25.234.524.352.821.352zm7.437 1.93a2.95 2.95 0 01-1.562-.438 3.309 3.309 0 01-1.149-1.172 3.22 3.22 0 01-.422-1.617l.032-8c0-.042.021-.063.062-.063h1.797c.042 0 .063.021.063.063v8c0 .36.114.666.343.922.229.25.508.375.836.375.344 0 .63-.125.86-.375.229-.256.343-.563.343-.922v-8c0-.042.021-.063.063-.063h1.797c.041 0 .062.021.062.063l.031 8c0 .588-.14 1.13-.421 1.625-.287.49-.667.88-1.141 1.172a3.021 3.021 0 01-1.594.43zm9.649-.157h-5.172c-.042 0-.063-.026-.063-.078l.016-10.992c0-.042.021-.063.062-.063h5.141c.042 0 .063.026.063.078v1.79c0 .041-.021.062-.063.062h-3.281v2.5h3.281c.042 0 .063.02.063.062l.015 1.813c0 .041-.021.062-.062.062h-3.297v2.797h3.297c.041 0 .062.026.062.078v1.828c0 .042-.021.063-.062.063zm4.203.156a2.962 2.962 0 01-1.57-.437 3.341 3.341 0 01-1.141-1.164 3.177 3.177 0 01-.422-1.61v-.734c0-.057.026-.086.078-.086H159c.042 0 .062.029.062.086v.734c0 .35.118.651.352.907.234.25.516.375.844.375.333 0 .617-.128.851-.383.235-.26.352-.56.352-.899 0-.39-.255-.732-.766-1.023a5.7 5.7 0 00-.328-.188c-.13-.078-.286-.166-.469-.265l-.531-.29a26.36 26.36 0 00-.5-.28c-.583-.344-1.018-.774-1.305-1.29a3.626 3.626 0 01-.421-1.75c0-.593.145-1.13.437-1.609a3.276 3.276 0 011.141-1.125 2.964 2.964 0 011.539-.422c.568 0 1.088.14 1.562.422.474.287.852.667 1.133 1.14.287.475.43 1.006.43 1.594v1.313c0 .041-.021.062-.063.062h-1.797c-.041 0-.062-.02-.062-.062l-.016-1.313c0-.375-.117-.68-.351-.914a1.143 1.143 0 00-.836-.351c-.328 0-.61.125-.844.375a1.26 1.26 0 00-.352.89c0 .35.073.641.219.875.151.235.425.459.821.672a43.348 43.348 0 01.789.438c.187.099.356.19.507.273l.274.14c.531.298.95.662 1.258 1.095.312.432.468.963.468 1.593 0 .61-.14 1.157-.421 1.64a3.22 3.22 0 01-1.141 1.15c-.474.28-1 .421-1.578.421z" fill="#95793C"/></svg>