<svg width="331" height="66" fill="none" xmlns="http://www.w3.org/2000/svg"><rect width="331" height="66" rx="18" fill="#95793C"/><path d="M136.773 26.614v-1.25h8.727v1.25h-3.659V37h-1.409V26.614h-3.659zm12.101 10.59a3.548 3.548 0 01-1.506-.312 2.582 2.582 0 01-1.074-.915c-.265-.401-.398-.886-.398-1.454 0-.5.099-.906.296-1.216.197-.315.46-.56.79-.739.329-.178.693-.31 1.09-.398.402-.09.805-.162 1.211-.216.53-.068.96-.119 1.289-.153.334-.038.576-.1.728-.187.155-.088.233-.239.233-.455v-.045c0-.561-.154-.997-.461-1.307-.303-.31-.763-.466-1.38-.466-.64 0-1.142.14-1.506.42-.364.28-.619.58-.767.898l-1.273-.454c.228-.53.531-.944.909-1.24.383-.298.8-.507 1.25-.624a5.196 5.196 0 011.341-.182 5.3 5.3 0 01.966.102c.368.065.722.2 1.063.404.344.204.63.513.858.926.227.413.341.966.341 1.659V37h-1.341v-1.182h-.069c-.09.19-.242.392-.454.608-.212.216-.494.4-.847.551-.352.152-.782.228-1.289.228zm.204-1.204c.53 0 .977-.104 1.341-.313.367-.208.644-.477.83-.806a2.06 2.06 0 00.284-1.04v-1.227c-.057.068-.182.13-.375.187-.19.053-.409.1-.659.142a30.34 30.34 0 01-1.285.17c-.348.046-.674.12-.977.222a1.687 1.687 0 00-.727.45c-.182.196-.273.465-.273.806 0 .466.173.818.517 1.057.349.235.79.352 1.324.352zm6.243 1v-8.727h1.295v1.318h.091c.159-.432.447-.782.864-1.051a2.541 2.541 0 011.409-.404c.099 0 .222.002.369.006.148.004.26.01.336.017v1.364a4.073 4.073 0 00-.313-.051 3.071 3.071 0 00-.506-.04c-.424 0-.803.089-1.136.267a2.016 2.016 0 00-.784.727 1.964 1.964 0 00-.284 1.051V37h-1.341zm5.953 0v-8.727h1.341V37h-1.341zm.682-10.182a.953.953 0 01-.676-.267.857.857 0 01-.279-.642c0-.25.093-.464.279-.642a.953.953 0 01.676-.267c.261 0 .485.089.67.267.19.178.285.392.285.642s-.095.464-.285.642a.932.932 0 01-.67.267zm7.001 1.455v1.136h-4.704v-1.136h4.704zM165.662 37v-9.932c0-.5.117-.917.352-1.25.235-.333.54-.583.915-.75a2.89 2.89 0 011.187-.25c.33 0 .599.027.807.08.209.053.364.102.466.148l-.386 1.159a6.673 6.673 0 00-.284-.086 1.727 1.727 0 00-.466-.05c-.443 0-.763.11-.96.334-.194.224-.29.552-.29.983V37h-1.341zm10.997-6.773l-1.204.341a2.238 2.238 0 00-.336-.585 1.628 1.628 0 00-.591-.477c-.25-.125-.57-.188-.96-.188-.534 0-.979.123-1.335.37-.352.242-.528.55-.528.926 0 .333.121.596.363.79.243.193.621.354 1.137.482l1.295.319c.78.189 1.362.479 1.744.869.383.386.574.884.574 1.494 0 .5-.144.947-.432 1.341-.284.394-.681.705-1.193.932-.511.227-1.106.34-1.784.34-.89 0-1.627-.192-2.21-.579-.583-.386-.953-.95-1.108-1.693l1.273-.318c.121.47.35.822.687 1.057.341.235.786.352 1.335.352.625 0 1.122-.133 1.489-.398.371-.269.557-.59.557-.966 0-.303-.106-.556-.318-.761-.212-.208-.538-.364-.978-.466l-1.454-.34c-.799-.19-1.387-.484-1.762-.882-.371-.401-.556-.903-.556-1.505 0-.493.138-.928.414-1.307a2.828 2.828 0 011.142-.892c.485-.216 1.035-.324 1.648-.324.864 0 1.542.19 2.034.568.496.38.849.88 1.057 1.5z" fill="#000"/></svg>