<svg width="331" height="66" fill="none" xmlns="http://www.w3.org/2000/svg"><rect width="331" height="66" rx="18" fill="#95793C"/><path d="M136.773 26.614v-1.25h8.727v1.25h-3.659V37h-1.409V26.614h-3.659zm13.113 10.568c-.841 0-1.566-.186-2.176-.557a3.733 3.733 0 01-1.403-1.568c-.326-.674-.489-1.459-.489-2.352 0-.894.163-1.682.489-2.364.329-.686.788-1.22 1.375-1.602.591-.387 1.28-.58 2.068-.58.455 0 .903.076 1.347.227a3.34 3.34 0 011.21.739c.363.337.653.784.869 1.34.216.558.324 1.243.324 2.058v.568h-6.727v-1.16h5.363c0-.492-.098-.931-.295-1.317a2.225 2.225 0 00-.83-.915c-.356-.224-.776-.335-1.261-.335-.534 0-.996.132-1.386.397a2.608 2.608 0 00-.892 1.023c-.209.42-.313.871-.313 1.352v.773c0 .66.114 1.218.341 1.676.231.455.551.801.96 1.04.409.235.885.352 1.426.352a2.9 2.9 0 00.955-.147c.288-.103.536-.254.744-.455.209-.205.37-.458.483-.761l1.296.363a2.88 2.88 0 01-.688 1.16c-.322.329-.72.587-1.193.772a4.43 4.43 0 01-1.597.273zm6.419-8.91l2.091 3.569 2.091-3.568h1.546l-2.819 4.363L162.033 37h-1.546l-2.091-3.386L156.305 37h-1.545l2.773-4.364-2.773-4.363h1.545zm11.436 0v1.137h-4.522v-1.136h4.522zm-3.204-2.09h1.341V34.5c0 .379.055.663.165.852a.85.85 0 00.431.375c.178.06.366.091.563.091.148 0 .269-.007.364-.023l.227-.045.273 1.205a2.733 2.733 0 01-.381.102 2.8 2.8 0 01-.619.057 2.7 2.7 0 01-1.114-.245 2.215 2.215 0 01-.898-.744c-.235-.333-.352-.754-.352-1.261v-8.682zm8.787 11c-.841 0-1.566-.186-2.176-.557a3.742 3.742 0 01-1.404-1.568c-.325-.674-.488-1.459-.488-2.352 0-.894.163-1.682.488-2.364.33-.686.788-1.22 1.375-1.602.591-.387 1.281-.58 2.069-.58.454 0 .903.076 1.346.227.443.152.847.398 1.21.739.364.337.654.784.87 1.34.216.558.324 1.243.324 2.058v.568h-6.728v-1.16h5.364c0-.492-.099-.931-.296-1.317a2.223 2.223 0 00-.829-.915c-.356-.224-.777-.335-1.261-.335-.535 0-.997.132-1.387.397a2.615 2.615 0 00-.892 1.023c-.208.42-.312.871-.312 1.352v.773c0 .66.113 1.218.341 1.676.231.455.551.801.96 1.04.409.235.884.352 1.426.352.352 0 .67-.049.954-.147.288-.103.536-.254.745-.455.208-.205.369-.458.483-.761l1.295.363c-.136.44-.365.826-.687 1.16a3.35 3.35 0 01-1.194.772 4.42 4.42 0 01-1.596.273z" fill="#000"/></svg>