<svg width="249" height="51" fill="none" xmlns="http://www.w3.org/2000/svg"><rect y="19" width="249" height="32" rx="5" fill="#D9D9D9"/><path d="M1.41 3.364h1.68l3.955 9.659h.137l3.954-9.66h1.682V15H11.5V6.16h-.114L7.75 15H6.477L2.841 6.16h-.114V15H1.41V3.364zm17.71 11.818c-.84 0-1.566-.186-2.175-.557a3.737 3.737 0 01-1.404-1.568c-.326-.674-.488-1.459-.488-2.353 0-.893.162-1.681.488-2.363.33-.686.788-1.22 1.375-1.602.591-.387 1.28-.58 2.068-.58.455 0 .904.076 1.347.227.443.152.847.398 1.21.739.364.337.654.784.87 1.34.215.558.323 1.243.323 2.058v.568h-6.727V9.93h5.364a2.86 2.86 0 00-.296-1.317 2.226 2.226 0 00-.83-.915c-.355-.224-.776-.335-1.26-.335-.535 0-.997.132-1.387.397a2.616 2.616 0 00-.892 1.023c-.208.42-.313.871-.313 1.352v.773c0 .66.114 1.218.341 1.676.231.455.551.801.96 1.04.41.235.885.352 1.427.352.352 0 .67-.049.954-.148.288-.102.536-.253.745-.454.208-.204.369-.458.483-.761l1.295.363c-.136.44-.365.826-.688 1.16-.322.329-.72.586-1.193.772a4.426 4.426 0 01-1.596.273zm11.836-6.955l-1.205.341a2.237 2.237 0 00-.335-.585 1.627 1.627 0 00-.59-.477c-.25-.125-.57-.188-.96-.188-.535 0-.98.123-1.336.37-.352.242-.529.55-.529.926 0 .333.122.596.364.79.243.193.621.354 1.136.482l1.296.319c.78.189 1.362.479 1.744.869.383.386.574.884.574 1.494 0 .5-.144.947-.432 1.341-.284.394-.682.705-1.193.932-.511.227-1.106.34-1.784.34-.89 0-1.627-.192-2.21-.579-.584-.386-.953-.95-1.108-1.693l1.272-.318c.122.47.35.822.688 1.057.34.235.786.352 1.335.352.625 0 1.122-.133 1.489-.398.371-.269.557-.59.557-.966 0-.303-.106-.556-.319-.761-.212-.208-.537-.364-.977-.466l-1.454-.34c-.8-.19-1.387-.484-1.762-.882-.37-.401-.556-.903-.556-1.505 0-.493.138-.928.414-1.307.28-.379.661-.676 1.142-.892.485-.216 1.034-.324 1.648-.324.864 0 1.542.19 2.034.568.496.38.849.88 1.057 1.5zm8.36 0l-1.205.341a2.24 2.24 0 00-.335-.585 1.627 1.627 0 00-.591-.477c-.25-.125-.57-.188-.96-.188-.535 0-.98.123-1.336.37-.352.242-.528.55-.528.926 0 .333.121.596.363.79.243.193.622.354 1.137.482l1.295.319c.78.189 1.362.479 1.745.869.382.386.573.884.573 1.494 0 .5-.143.947-.431 1.341-.285.394-.682.705-1.194.932-.51.227-1.106.34-1.784.34-.89 0-1.627-.192-2.21-.579-.583-.386-.952-.95-1.108-1.693l1.273-.318c.121.47.35.822.687 1.057.341.235.786.352 1.336.352.625 0 1.12-.133 1.488-.398.372-.269.557-.59.557-.966 0-.303-.106-.556-.318-.761-.212-.208-.538-.364-.977-.466l-1.455-.34c-.8-.19-1.386-.484-1.761-.882-.371-.401-.557-.903-.557-1.505 0-.493.138-.928.415-1.307.28-.379.66-.676 1.142-.892.485-.216 1.034-.324 1.647-.324.864 0 1.542.19 2.035.568.496.38.848.88 1.056 1.5zm4.745 6.977a3.545 3.545 0 01-1.506-.312 2.584 2.584 0 01-1.074-.915c-.265-.401-.397-.886-.397-1.454 0-.5.098-.906.295-1.216.197-.315.46-.56.79-.739.33-.178.693-.31 1.09-.397.402-.091.806-.163 1.211-.216.53-.069.96-.12 1.29-.154.333-.038.576-.1.727-.187.155-.087.233-.239.233-.455v-.045c0-.561-.153-.997-.46-1.307-.303-.31-.763-.466-1.38-.466-.64 0-1.143.14-1.506.42-.364.28-.62.58-.768.898l-1.272-.454c.227-.53.53-.944.909-1.24.383-.298.8-.507 1.25-.624a5.19 5.19 0 011.34-.182c.281 0 .603.034.967.102.367.065.721.2 1.062.404.345.204.63.513.858.926.227.413.341.966.341 1.659V15h-1.34v-1.182h-.069c-.09.19-.242.392-.455.608-.212.216-.494.4-.846.551-.352.152-.782.227-1.29.227zM44.266 14c.53 0 .977-.104 1.34-.313a2.127 2.127 0 001.114-1.846v-1.227c-.057.068-.182.13-.375.187-.19.053-.409.1-.659.142a29.881 29.881 0 01-1.284.17c-.349.046-.674.12-.977.222-.3.099-.542.248-.728.45-.181.196-.272.465-.272.806 0 .466.172.818.517 1.057.348.235.79.352 1.324.352zm9.765 4.454c-.648 0-1.204-.083-1.67-.25a3.542 3.542 0 01-1.165-.647 3.541 3.541 0 01-.733-.852l1.068-.75c.122.159.275.34.46.545.186.208.44.388.762.54.326.155.752.233 1.278.233.705 0 1.286-.17 1.745-.512.458-.34.687-.875.687-1.602v-1.773h-.114c-.098.16-.238.356-.42.591-.178.231-.436.438-.773.62-.333.178-.784.267-1.352.267-.705 0-1.337-.167-1.898-.5-.557-.334-.998-.819-1.324-1.455-.322-.636-.483-1.409-.483-2.318 0-.894.158-1.672.472-2.335.314-.667.752-1.182 1.313-1.546.56-.367 1.208-.55 1.943-.55.568 0 1.019.094 1.352.283.337.186.595.398.773.637.181.234.322.428.42.58h.136V6.272h1.296v8.977c0 .75-.17 1.36-.511 1.83-.337.473-.792.82-1.364 1.04-.568.223-1.2.334-1.898.334zm-.045-4.795c.538 0 .992-.123 1.363-.37.372-.245.654-.6.847-1.062.193-.462.29-1.015.29-1.659 0-.629-.095-1.184-.284-1.665-.19-.48-.47-.858-.841-1.13-.371-.273-.83-.41-1.375-.41-.568 0-1.042.145-1.42.432a2.628 2.628 0 00-.847 1.16 4.479 4.479 0 00-.279 1.613c0 .606.095 1.142.284 1.608.194.462.478.826.853 1.091.379.261.848.392 1.409.392zm9.932 1.523c-.841 0-1.567-.186-2.176-.557a3.737 3.737 0 01-1.404-1.568c-.326-.674-.489-1.459-.489-2.353 0-.893.163-1.681.49-2.363.329-.686.787-1.22 1.374-1.602.591-.387 1.28-.58 2.068-.58.455 0 .904.076 1.347.227.443.152.846.398 1.21.739.364.337.654.784.87 1.34.215.558.323 1.243.323 2.058v.568h-6.727V9.93h5.364c0-.492-.099-.931-.296-1.317a2.226 2.226 0 00-.83-.915c-.355-.224-.776-.335-1.26-.335-.535 0-.997.132-1.387.397a2.617 2.617 0 00-.892 1.023c-.209.42-.313.871-.313 1.352v.773c0 .66.114 1.218.341 1.676.231.455.551.801.96 1.04.41.235.885.352 1.427.352.352 0 .67-.049.954-.148.288-.102.536-.253.745-.454.208-.204.369-.458.482-.761l1.296.363c-.136.44-.366.826-.688 1.16-.322.329-.72.586-1.193.772a4.426 4.426 0 01-1.596.273z" fill="#000"/></svg>