<svg width="249" height="51" fill="none" xmlns="http://www.w3.org/2000/svg"><rect y="19" width="249" height="32" rx="5" fill="#D9D9D9"/><path d="M10.636 3.364V15H9.273L2.932 5.864h-.114V15H1.41V3.364h1.364l6.363 9.159h.114v-9.16h1.386zm6.184 11.818c-.788 0-1.48-.188-2.074-.563-.591-.375-1.053-.9-1.387-1.573-.33-.675-.494-1.463-.494-2.364 0-.91.165-1.703.494-2.38.334-.679.796-1.205 1.387-1.58.594-.375 1.286-.563 2.074-.563.788 0 1.477.188 2.068.563.595.375 1.057.901 1.386 1.58.334.677.5 1.47.5 2.38 0 .901-.166 1.69-.5 2.364a3.769 3.769 0 01-1.386 1.573c-.591.375-1.28.563-2.068.563zm0-1.205c.598 0 1.09-.153 1.477-.46.386-.307.672-.71.858-1.21.185-.5.278-1.042.278-1.625a4.68 4.68 0 00-.278-1.63 2.749 2.749 0 00-.858-1.222c-.387-.311-.879-.466-1.477-.466-.599 0-1.091.155-1.478.466-.386.31-.672.717-.858 1.221a4.68 4.68 0 00-.278 1.63c0 .584.093 1.126.278 1.626.186.5.472.903.858 1.21.387.307.88.46 1.478.46zM22.82 15V6.273h1.295v1.363h.114c.182-.466.476-.827.88-1.085.406-.261.893-.392 1.461-.392.576 0 1.055.13 1.438.392.386.258.687.62.903 1.085h.09c.224-.45.56-.808 1.007-1.074.447-.268.982-.403 1.607-.403.78 0 1.419.244 1.915.733.497.485.745 1.24.745 2.267V15h-1.341V9.16c0-.645-.177-1.105-.529-1.382a1.956 1.956 0 00-1.244-.414c-.614 0-1.09.185-1.426.556-.337.368-.506.834-.506 1.398V15h-1.364V9.023c0-.496-.16-.896-.482-1.2-.322-.306-.737-.46-1.245-.46-.348 0-.674.093-.977.279-.3.186-.542.443-.727.773a2.28 2.28 0 00-.273 1.13V15H22.82z" fill="#000"/></svg>