<svg width="112" height="33" fill="none" xmlns="http://www.w3.org/2000/svg"><path fill="#fff" stroke="#000" stroke-width="2" d="M1 1H111V32H1z"/><path d="M40.508 24H38.71c-.052 0-.078-.026-.078-.078l.031-10.992c0-.042.02-.063.063-.063h3.078c.979 0 1.752.3 2.32.899.573.593.86 1.403.86 2.43 0 .75-.15 1.403-.446 1.96-.302.552-.693.98-1.172 1.282-.479.302-1 .453-1.562.453h-1.22v4.03c0 .053-.025.079-.077.079zm1.297-9.234l-1.22.015v3.172h1.22c.338 0 .633-.161.883-.484.25-.328.374-.753.374-1.274 0-.416-.111-.758-.335-1.023-.224-.271-.532-.406-.922-.406zM51.18 24h-5.172c-.042 0-.063-.026-.063-.078l.016-10.977c0-.052.026-.078.078-.078h1.781c.052 0 .078.026.078.078l-.015 9.086h3.297c.052 0 .078.026.078.078v1.813c0 .052-.026.078-.078.078zm4.07.156a2.95 2.95 0 01-1.563-.437 3.216 3.216 0 01-1.57-2.79l.031-8c0-.041.021-.062.063-.062h1.797c.041 0 .062.021.062.063v8c0 .36.115.666.344.922.23.25.508.375.836.375.344 0 .63-.125.86-.375.229-.256.343-.563.343-.922v-8c0-.042.021-.063.063-.063h1.797c.041 0 .062.021.062.063l.031 8c0 .588-.14 1.13-.422 1.625-.286.49-.666.88-1.14 1.172a3.022 3.022 0 01-1.594.43zm7.133 0a2.964 2.964 0 01-1.57-.437 3.343 3.343 0 01-1.141-1.164 3.174 3.174 0 01-.422-1.61v-.734c0-.057.026-.086.078-.086h1.797c.042 0 .063.029.063.086v.734c0 .35.117.651.351.907.234.25.516.375.844.375.333 0 .617-.128.851-.383.235-.26.352-.56.352-.899 0-.39-.255-.732-.766-1.023a6.037 6.037 0 00-.328-.188 12.54 12.54 0 00-.469-.265l-.53-.29a28.01 28.01 0 00-.5-.28c-.584-.344-1.019-.774-1.306-1.29a3.623 3.623 0 01-.421-1.75c0-.593.145-1.13.437-1.609a3.274 3.274 0 011.14-1.125 2.963 2.963 0 011.54-.422c.567 0 1.088.14 1.562.422.474.287.852.667 1.133 1.14a3.02 3.02 0 01.43 1.594v1.313c0 .041-.021.062-.063.062h-1.797c-.041 0-.062-.02-.062-.062l-.016-1.313c0-.375-.117-.68-.351-.914a1.142 1.142 0 00-.836-.351c-.328 0-.61.125-.844.375-.234.25-.352.547-.352.89 0 .35.073.641.22.875.15.235.424.459.82.672a37.522 37.522 0 01.789.438c.187.099.356.19.507.273l.274.14c.531.298.95.662 1.258 1.095.312.432.468.963.468 1.593 0 .61-.14 1.157-.421 1.64a3.214 3.214 0 01-1.141 1.15c-.474.28-1 .421-1.578.421zM87 24l-6.928-11.25h13.856L87 24z" fill="#000"/></svg>