<svg width="58" height="55" fill="none" xmlns="http://www.w3.org/2000/svg"><ellipse cx="29" cy="27.5" rx="29" ry="27.5" fill="#D3C756"/><path d="M20.508 21H18.71c-.052 0-.078-.026-.078-.078l.031-10.992c0-.042.02-.063.063-.063h3.078c.979 0 1.752.3 2.32.899.573.593.86 1.403.86 2.43 0 .75-.15 1.403-.446 1.96-.302.552-.693.98-1.172 1.281-.479.303-1 .454-1.562.454h-1.22v4.03c0 .053-.025.079-.077.079zm1.297-9.234l-1.22.015v3.172h1.22c.338 0 .633-.161.883-.484.25-.328.375-.753.375-1.274 0-.416-.112-.758-.336-1.023-.224-.271-.532-.406-.922-.406zm7.086 9.218L26.023 21c-.052 0-.078-.026-.078-.078l.032-10.992c0-.042.02-.063.062-.063l2.992-.015a2.92 2.92 0 011.61.406c.484.286.87.674 1.156 1.164a3.06 3.06 0 01.437 1.61v4.593c0 .615-.148 1.177-.445 1.688a3.478 3.478 0 01-1.203 1.21c-.5.297-1.065.451-1.695.461zm.14-9.218l-1.117.015-.016 7.25h.993c.396 0 .729-.138 1-.414.27-.276.406-.607.406-.992v-4.61c0-.338-.125-.632-.375-.882a1.152 1.152 0 00-.89-.367zM35.367 21H33.57c-.052 0-.078-.026-.078-.078l.031-10.992c0-.042.021-.063.063-.063h5.125c.052 0 .078.021.078.063v1.804c0 .042-.02.063-.062.063h-3.282v2.484h3.282c.041 0 .062.026.062.078l.016 1.813c0 .041-.026.062-.078.062h-3.282v4.688c0 .052-.026.078-.078.078zM28.293 46.707a1 1 0 001.414 0l6.364-6.364a1 1 0 00-1.414-1.414L29 44.586l-5.657-5.657a1 1 0 00-1.414 1.414l6.364 6.364zM29 26h-1v20h2V26h-1z" fill="#000"/></svg>