<svg width="249" height="51" fill="none" xmlns="http://www.w3.org/2000/svg"><rect y="19" width="249" height="32" rx="5" fill="#D9D9D9"/><path d="M7.773 6.273a1.784 1.784 0 00-.83-1.341c-.485-.318-1.08-.477-1.784-.477-.515 0-.966.083-1.352.25a2.16 2.16 0 00-.898.687 1.648 1.648 0 00-.318.994c0 .311.074.578.221.801.152.22.345.404.58.552.235.144.481.263.739.358.257.09.494.164.71.221l1.182.318c.303.08.64.19 1.011.33.375.14.733.331 1.074.574.345.238.629.545.852.92.224.375.335.835.335 1.38 0 .63-.164 1.198-.494 1.706-.326.507-.803.91-1.432 1.21-.625.299-1.384.448-2.278.448-.833 0-1.555-.134-2.165-.403-.606-.269-1.083-.644-1.432-1.125A3.21 3.21 0 01.91 12h1.455c.038.44.185.803.443 1.09a2.4 2.4 0 00.988.637c.402.137.834.205 1.296.205.538 0 1.02-.087 1.449-.261.428-.179.767-.425 1.017-.74.25-.317.375-.689.375-1.113 0-.386-.108-.7-.324-.943-.216-.242-.5-.44-.852-.59a8.959 8.959 0 00-1.142-.399l-1.432-.409c-.91-.261-1.629-.634-2.16-1.119-.53-.485-.795-1.12-.795-1.903 0-.652.176-1.22.529-1.705a3.51 3.51 0 011.431-1.136c.603-.273 1.275-.41 2.018-.41.75 0 1.416.135 2 .404.583.265 1.045.629 1.386 1.09.345.463.526.988.545 1.575H7.773zm9.157 5.159v-5.16h1.341V15h-1.34v-1.477h-.091c-.205.443-.523.82-.955 1.13-.432.307-.977.46-1.636.46-.546 0-1.03-.119-1.455-.357-.424-.243-.758-.606-1-1.091-.242-.489-.364-1.104-.364-1.847V6.273h1.341v5.454c0 .637.178 1.144.534 1.523.36.379.819.568 1.375.568.334 0 .673-.085 1.017-.255.349-.171.64-.432.875-.785.24-.352.358-.8.358-1.346zm3.797-5.16h1.341v9.364c0 .538-.093 1.004-.278 1.398a2.005 2.005 0 01-.83.915c-.367.216-.831.324-1.392.324h-.272v-1.25h.25c.409 0 .708-.122.897-.364.19-.238.284-.58.284-1.023V6.273zm.66-1.454a.953.953 0 01-.677-.267.858.858 0 01-.278-.642c0-.25.093-.464.278-.642A.953.953 0 0121.386 3c.262 0 .485.089.67.267a.85.85 0 01.285.642.85.85 0 01-.284.642.934.934 0 01-.67.267zm6.796 10.364c-.84 0-1.566-.186-2.176-.557a3.737 3.737 0 01-1.403-1.568c-.326-.674-.489-1.459-.489-2.353 0-.893.163-1.681.489-2.363.33-.686.788-1.22 1.375-1.602.59-.387 1.28-.58 2.068-.58.454 0 .903.076 1.346.227.444.152.847.398 1.21.739.364.337.654.784.87 1.34.216.558.324 1.243.324 2.058v.568H25.07V9.93h5.363a2.86 2.86 0 00-.295-1.317 2.226 2.226 0 00-.83-.915c-.356-.224-.776-.335-1.261-.335-.534 0-.996.132-1.387.397a2.616 2.616 0 00-.892 1.023c-.208.42-.312.871-.312 1.352v.773c0 .66.114 1.218.34 1.676.232.455.552.801.961 1.04.41.235.885.352 1.426.352.352 0 .67-.049.955-.148.288-.102.536-.253.744-.454.208-.204.37-.458.483-.761l1.296.363c-.137.44-.366.826-.688 1.16-.322.329-.72.586-1.193.772a4.426 4.426 0 01-1.597.273zm9.45-8.91V7.41h-4.524V6.273h4.523zm-3.205-2.09h1.34V12.5c0 .379.055.663.165.852.114.186.258.31.432.375.178.06.366.091.563.091.147 0 .269-.007.363-.022l.228-.046.272 1.204c-.09.035-.218.069-.38.103-.163.038-.37.057-.62.057-.379 0-.75-.082-1.113-.245a2.213 2.213 0 01-.898-.744c-.235-.333-.352-.754-.352-1.261V4.182z" fill="#000"/></svg>