<svg width="165" height="52" fill="none" xmlns="http://www.w3.org/2000/svg"><path d="M60.001 40h-9.697c-.078 0-.117-.049-.117-.147l.029-20.61c0-.078.039-.117.117-.117h9.639c.078 0 .117.049.117.146v3.355c0 .078-.04.117-.117.117h-6.153v4.688h6.153c.078 0 .117.039.117.117l.03 3.398c0 .078-.04.117-.118.117h-6.182v5.245h6.182c.078 0 .117.048.117.146v3.428c0 .078-.039.117-.117.117zm7.88.293a5.558 5.558 0 01-2.944-.82A6.27 6.27 0 0162.8 37.29a5.952 5.952 0 01-.791-3.017v-1.378c0-.107.049-.16.146-.16h3.37c.078 0 .117.053.117.16v1.377c0 .655.22 1.221.659 1.7.44.468.967.703 1.582.703.625 0 1.157-.24 1.596-.718.44-.488.66-1.05.66-1.684 0-.733-.479-1.373-1.436-1.92a11.388 11.388 0 00-.615-.351 23.893 23.893 0 00-.879-.498l-.996-.542a52.186 52.186 0 00-.938-.527c-1.093-.645-1.909-1.45-2.446-2.417-.527-.977-.79-2.07-.79-3.282 0-1.113.273-2.119.82-3.017a6.14 6.14 0 012.138-2.11 5.555 5.555 0 012.886-.79c1.064 0 2.04.263 2.93.79a6.102 6.102 0 012.124 2.139c.537.889.805 1.885.805 2.988v2.461c0 .078-.039.117-.117.117h-3.37c-.077 0-.116-.039-.116-.117l-.03-2.46c0-.704-.22-1.275-.659-1.714a2.14 2.14 0 00-1.567-.66c-.615 0-1.143.235-1.582.703a2.36 2.36 0 00-.66 1.67c0 .655.137 1.201.41 1.641.284.44.797.86 1.539 1.26.078.039.259.136.542.293.283.156.596.332.937.527.352.186.67.357.953.513l.512.263c.996.557 1.782 1.24 2.359 2.051.586.81.879 1.807.879 2.989 0 1.142-.264 2.167-.791 3.076a6.026 6.026 0 01-2.14 2.153c-.888.527-1.874.791-2.958.791zM82.253 40h-3.384c-.088 0-.132-.049-.132-.147V22.744H74.84c-.098 0-.147-.049-.147-.146l.03-3.355c0-.078.039-.117.117-.117h11.396c.108 0 .161.039.161.117v3.355c0 .097-.039.146-.117.146h-3.94l.03 17.11c0 .097-.04.146-.118.146zm9.155 0H88.01c-.098 0-.147-.049-.147-.147l.03-20.61c0-.078.039-.117.117-.117h3.369c.078 0 .117.039.117.117l.03 20.61c0 .098-.04.147-.118.147zm8.277.293a5.61 5.61 0 01-2.974-.82 6.11 6.11 0 01-2.124-2.198c-.518-.927-.776-1.958-.776-3.09l.029-9.36c0-1.114.254-2.12.762-3.018a5.909 5.909 0 012.094-2.183 5.562 5.562 0 012.989-.835c1.113 0 2.104.269 2.973.806a5.919 5.919 0 012.095 2.182c.527.909.791 1.924.791 3.047v1.377c0 .078-.039.117-.117.117h-3.369c-.078 0-.118-.039-.118-.117v-1.377c0-.664-.214-1.235-.644-1.714a2.076 2.076 0 00-1.611-.717c-.713 0-1.26.244-1.641.732a2.684 2.684 0 00-.571 1.7v9.36c0 .732.215 1.333.644 1.801.43.46.952.689 1.568.689.644 0 1.181-.254 1.611-.762.43-.517.644-1.094.644-1.728v-1.392c0-.078.04-.117.118-.117h3.398c.078 0 .117.039.117.117v1.392c0 1.123-.263 2.148-.791 3.076a6.401 6.401 0 01-2.124 2.212c-.879.547-1.87.82-2.973.82zM117.569 40h-9.697c-.078 0-.117-.049-.117-.147l.029-20.58c0-.098.049-.147.147-.147h3.34c.097 0 .146.049.146.146l-.029 17.037h6.181c.098 0 .147.048.147.146v3.398c0 .098-.049.147-.147.147zm7.661.293a5.56 5.56 0 01-2.944-.82 6.395 6.395 0 01-2.153-2.183 5.869 5.869 0 01-.806-3.017l.029-9.507c0-1.114.269-2.115.806-3.003a6.019 6.019 0 012.139-2.154 5.53 5.53 0 012.929-.82c1.094 0 2.076.269 2.945.806a6.062 6.062 0 012.109 2.168c.537.898.806 1.9.806 3.003l.029 9.507a5.876 5.876 0 01-.791 3.002 6.229 6.229 0 01-2.139 2.198 5.533 5.533 0 01-2.959.82zm0-3.618c.606 0 1.133-.244 1.582-.733.45-.498.674-1.054.674-1.67l-.029-9.506c0-.664-.21-1.226-.63-1.685-.42-.459-.952-.688-1.597-.688-.615 0-1.142.224-1.582.673-.439.45-.659 1.016-.659 1.7v9.507c0 .654.22 1.22.659 1.699.44.468.967.703 1.582.703zM143.775 40h-11.191c-.098 0-.146-.049-.146-.147l.029-3.266 7.353-14.048h-6.958c-.088 0-.132-.039-.132-.117v-3.15c0-.097.044-.146.132-.146h10.855c.097 0 .146.049.146.146v3.238l-7.309 13.974h7.221c.079 0 .118.054.118.161l.029 3.208c0 .098-.049.147-.147.147zm11.851 0h-9.697c-.078 0-.117-.049-.117-.147l.029-20.61c0-.078.039-.117.117-.117h9.639c.078 0 .117.049.117.146v3.355c0 .078-.039.117-.117.117h-6.153v4.688h6.153c.078 0 .117.039.117.117l.029 3.398c0 .078-.039.117-.117.117h-6.182v5.245h6.182c.078 0 .117.048.117.146v3.428c0 .078-.039.117-.117.117z" fill="#000"/><path d="M66.357 9.985a45.38 45.38 0 01-4.35.572 53.445 53.445 0 01-4.35.175H56.47a33.935 33.935 0 00-2.395 2.132 70.489 70.489 0 00-2.088 2.131 104.59 104.59 0 00-1.867 2.044c-.572.659-1.121 1.281-1.648 1.867-.337.352-.703.755-1.099 1.209-.38.454-.806.945-1.274 1.472l3.252.22-.748 1.23h-3.735c-.688.777-1.399 1.59-2.131 2.44-.733.834-1.472 1.669-2.22 2.504a193.32 193.32 0 01-2.219 2.439c-.717.79-1.399 1.523-2.043 2.197a39.064 39.064 0 01-3.142 2.945 22.823 22.823 0 01-3.34 2.329 17.577 17.577 0 01-3.604 1.516c-1.245.366-2.556.55-3.933.55-1.596 0-2.834-.309-3.713-.924-.864-.615-1.296-1.42-1.296-2.417 0-.366.058-.74.175-1.12.117-.396.293-.748.528-1.055.249-.322.549-.579.9-.77a2.519 2.519 0 011.253-.307c.527 0 .938.14 1.23.418.293.278.44.68.44 1.208 0 .484-.117.88-.352 1.187-.22.293-.461.542-.725.747-.263.205-.512.395-.747.571-.22.161-.33.352-.33.571 0 .308.176.542.528.703.352.147.835.22 1.45.22 1.172 0 2.263-.175 3.274-.527a12.298 12.298 0 002.9-1.472 18.926 18.926 0 002.703-2.263 53.251 53.251 0 002.725-2.9 231.832 231.832 0 013.691-4.198 556.14 556.14 0 004.131-4.592h-3.516l1.407-1.977 3.603.263c.337-.366.674-.74 1.01-1.12a498.452 498.452 0 012.263-2.527c.426-.454.887-.938 1.385-1.45a55.122 55.122 0 013.12-3.01 39.65 39.65 0 013.384-2.703 51.96 51.96 0 01-1.494-.198 33.264 33.264 0 00-1.67-.198 26.228 26.228 0 00-2.11-.154 51.624 51.624 0 00-2.812-.066c-1.86 0-3.581.213-5.163.638-1.582.425-2.952.96-4.11 1.604-1.156.644-2.065 1.347-2.724 2.109-.644.762-.967 1.48-.967 2.153 0 .279.052.542.154.791.103.235.279.447.528.638.263.175.6.322 1.01.439.425.103.96.154 1.604.154.513 0 1.018-.073 1.516-.22a8.672 8.672 0 001.473-.615c.483-.264.944-.557 1.384-.879.44-.337.85-.681 1.23-1.033a20.739 20.739 0 002.527-2.746l.308.571c-.572 1.362-1.216 2.468-1.934 3.318-.703.85-1.428 1.509-2.175 1.977-.747.47-1.502.791-2.263.967-.747.161-1.45.242-2.11.242a8.164 8.164 0 01-1.56-.154 4.286 4.286 0 01-1.406-.593 3.254 3.254 0 01-1.01-1.12c-.25-.47-.374-1.063-.374-1.78 0-.704.22-1.4.659-2.088.454-.703 1.055-1.377 1.802-2.021a16.621 16.621 0 012.636-1.802 22.718 22.718 0 013.142-1.45 21.725 21.725 0 013.384-.99 16.724 16.724 0 013.318-.35c.586 0 1.223.043 1.912.131.688.073 1.435.176 2.241.308.806.117 1.677.249 2.615.395.937.147 1.948.279 3.032.396a22.126 22.126 0 012.131-1.055 16.07 16.07 0 012.22-.791l.351.571a29.07 29.07 0 00-1.208.747c-.367.235-.74.484-1.121.747.747.044 1.53.088 2.351.132a74.654 74.654 0 004.307.022c.571-.014 1.12-.036 1.648-.066l-.572.791z" fill="#000"/></svg>